<?xml version="1.0" encoding="UTF-8" standalone="no"?>
<!-- Created with Inkscape (http://www.inkscape.org/) -->

<svg
   version="1.1"
   id="svg1"
   width="186"
   height="185.66667"
   viewBox="0 0 186 185.66667"
   sodipodi:docname="faculty_logo.png"
   inkscape:export-filename="faculty_logo.svg"
   inkscape:export-xdpi="96"
   inkscape:export-ydpi="96"
   xmlns:inkscape="http://www.inkscape.org/namespaces/inkscape"
   xmlns:sodipodi="http://sodipodi.sourceforge.net/DTD/sodipodi-0.dtd"
   xmlns="http://www.w3.org/2000/svg"
   xmlns:svg="http://www.w3.org/2000/svg">
  <defs
     id="defs1" />
  <sodipodi:namedview
     id="namedview1"
     pagecolor="#ffffff"
     bordercolor="#000000"
     borderopacity="0.25"
     inkscape:showpageshadow="2"
     inkscape:pageopacity="0.0"
     inkscape:pagecheckerboard="0"
     inkscape:deskcolor="#d1d1d1">
    <inkscape:page
       x="0"
       y="0"
       width="186"
       height="185.66667"
       id="page2"
       margin="0"
       bleed="0" />
  </sodipodi:namedview>
  <g
     inkscape:groupmode="layer"
     inkscape:label="Image"
     id="g1">
    <path
       style="fill:#ffffff;fill-opacity:1"
       d="M 85.269109,179.75209 C 62.029889,177.6852 40.206499,166.01687 25.235339,147.65379 17.080979,137.65194 10.345819,123.61052 7.7301294,111.15904 5.2943694,99.564057 5.2363494,86.260197 7.5715194,74.787082 10.149989,62.118563 16.119029,49.323551 24.443739,38.620414 35.924889,23.859008 53.122609,12.626961 71.425579,7.9359758 c 7.71433,-1.9771532 12.87554,-2.5909163 21.78734,-2.5909163 8.911801,0 14.073011,0.6137631 21.787341,2.5909163 15.49099,3.9702862 30.38203,12.6946322 41.36593,24.2354352 11.33096,11.905465 19.31831,27.041717 22.48813,42.615671 2.33517,11.473115 2.27716,24.776975 -0.15861,36.371958 -2.61568,12.45148 -9.35085,26.4929 -17.50521,36.49475 -18.52333,22.72005 -46.82617,34.68603 -75.921391,32.0983 z m 13.44381,-0.9688 c 21.244661,-1.50813 40.297321,-10.13469 55.186881,-24.98723 2.48612,-2.47994 5.52644,-5.78179 6.75626,-7.33746 12.9513,-16.38277 19.45512,-35.94689 18.78425,-56.504851 C 179.21137,82.938343 178.64176,78.767771 177.0063,72.132473 173.13508,56.426339 165.60474,43.121377 154.06856,31.605013 149.42944,26.973857 145.9011,24.076139 140.66439,20.596584 121.61948,7.9420999 98.118439,3.4685551 75.387059,8.1707063 62.640339,10.807456 49.728879,16.931109 39.212919,25.327388 c -3.80698,3.039617 -10.30686,9.573195 -13.39027,13.459693 -8.05088,10.147769 -13.3311,20.881772 -16.4031096,33.345392 -1.63546,6.635298 -2.20507,10.80587 -2.434,17.821276 -0.59061,18.098121 4.3306196,35.330011 14.4221996,50.500001 6.49512,9.76366 16.12267,19.09992 26.30518,25.50927 11.21552,7.05958 25.83595,11.82719 39.22339,12.79045 5.4773,0.39411 6.60465,0.39697 11.77661,0.0298 z m -13.16666,-4.99621 c -0.825,-0.12826 -1.25355,-0.25573 -0.95233,-0.28326 0.67388,-0.0616 0.82905,-0.44734 1.12148,-2.78786 l 0.23018,-1.8423 -1.11633,-0.18793 c -0.61399,-0.10336 -1.73265,-0.28245 -2.48593,-0.39797 l -1.36958,-0.21003 -0.21008,1.27134 c -0.3306,2.00073 -0.25389,3.36774 0.19925,3.55059 0.22917,0.0925 -0.0333,0.16222 -0.58333,0.155 -1.16783,-0.0153 -3.27377,-0.50332 -2.42302,-0.56147 0.68466,-0.0468 0.79973,-0.46388 1.39037,-5.03944 0.30373,-2.35289 0.34242,-3.63656 0.11808,-3.91667 -0.25438,-0.31759 -0.0664,-0.41109 0.79042,-0.39323 1.21173,0.0252 2.91389,0.57674 1.91303,0.61981 -0.59879,0.0258 -0.94399,0.95864 -0.951,2.56999 -0.004,1.03757 0.0148,1.04944 2.24545,1.38021 1.2375,0.18349 2.34497,0.23754 2.46105,0.12009 0.11608,-0.11744 0.31297,-0.92739 0.43754,-1.79988 0.20635,-1.44521 0.15791,-1.61654 -0.54438,-1.92556 -0.66768,-0.2938 -0.62027,-0.31571 0.35413,-0.16365 0.61875,0.0966 1.58492,0.17556 2.14704,0.17556 0.91492,0 0.96056,0.045 0.43542,0.42894 -0.43117,0.31528 -0.71024,1.35315 -1.05314,3.91667 -0.63224,4.72653 -0.62092,4.95564 0.26234,5.31067 0.74159,0.29808 0.74066,0.30114 -0.0833,0.27252 -0.45833,-0.0159 -1.50833,-0.13387 -2.33333,-0.26214 z m 8.41666,0.10356 c 0.51761,-0.13526 0.58334,-0.63792 0.58334,-4.46133 v -4.30889 h -1.48344 c -1.06114,0 -1.58016,0.16606 -1.8232,0.58333 -0.28143,0.48319 -0.3415,0.39735 -0.34989,-0.5 l -0.0101,-1.08333 h 4.33333 4.33334 l -0.0387,1.08333 c -0.0213,0.59583 -0.10431,0.83623 -0.18452,0.53421 -0.15152,-0.57043 -1.06947,-0.93849 -2.36015,-0.94632 -0.73749,-0.004 -0.74992,0.0636 -0.7449,4.07878 0.005,4.15194 0.10802,4.66943 0.9949,5.00703 0.275,0.10469 -0.475,0.18478 -1.66667,0.17799 -1.19166,-0.007 -1.90416,-0.081 -1.58333,-0.1648 z m 14.016181,-2.42339 c -2.83518,-1.72872 -2.98804,-6.69942 -0.26096,-8.48627 0.47994,-0.31447 1.66054,-0.73703 2.62355,-0.93902 1.52466,-0.31981 1.91964,-0.28462 3.05667,0.27226 3.61741,1.77172 3.84845,7.03936 0.40094,9.14133 -1.46613,0.89391 -4.36377,0.89973 -5.8202,0.0117 z m 5.20998,-0.50117 c 1.12993,-0.58431 1.35717,-1.09547 1.35717,-3.05287 0,-3.96391 -3.68076,-6.51637 -6.23141,-4.32123 -2.38583,2.0533 0.057,7.81275 3.3313,7.85418 0.32994,0.004 1.02426,-0.21186 1.54294,-0.48008 z m -42.542281,0.0175 c -1.79287,-0.53919 -2.27654,-0.80271 -1.91323,-1.0424 0.7272,-0.47974 2.86387,-8.19079 2.41836,-8.7276 -0.19468,-0.23457 -0.24766,-0.4265 -0.11772,-0.4265 0.26537,0 5.28427,1.40711 5.4548,1.52932 0.0602,0.0431 -0.12131,0.50417 -0.40332,1.02455 -0.4576,0.84438 -0.51418,0.86898 -0.52609,0.22874 -0.009,-0.49746 -0.33166,-0.82835 -1.05163,-1.07934 -1.25627,-0.43794 -1.48767,-0.32106 -1.72865,0.87313 -0.10251,0.50798 -0.28216,1.17108 -0.39924,1.47355 -0.16064,0.41502 0.0774,0.64572 0.97014,0.94036 0.65065,0.21474 1.352,0.28598 1.55856,0.15832 0.39662,-0.24512 0.15863,0.87686 -0.39271,1.85137 -0.22291,0.39402 -0.28502,0.34794 -0.29301,-0.21739 -0.007,-0.50057 -0.3274,-0.82799 -1.05988,-1.08333 -0.57736,-0.20127 -1.0916,-0.36594 -1.14276,-0.36594 -0.0512,0 -0.28189,0.84395 -0.51273,1.87546 -0.38627,1.72602 -0.36982,1.91194 0.20647,2.33333 0.77197,0.56448 1.89868,0.59129 2.4321,0.0579 0.49136,-0.49136 0.51897,-0.11181 0.0549,0.75525 -0.41095,0.76786 -0.48425,0.76459 -3.5544,-0.15874 z m 48.919781,-1.38766 c 0.35567,-0.42857 1.75088,-5.5133 1.55334,-5.66106 -3.47448,-2.59884 -4.40228,-3.14242 -5.03728,-2.95122 -1.07987,0.32516 -0.21681,-0.37671 0.96361,-0.78364 0.55,-0.18961 1.28711,-0.46057 1.63802,-0.60214 0.46423,-0.1873 0.56863,-0.14515 0.38329,0.15475 -0.15085,0.24407 -0.003,0.61164 0.36198,0.90131 1.24812,0.98997 2.14076,1.55346 2.2626,1.42831 0.0688,-0.0707 0.23115,-0.84099 0.36078,-1.71182 0.20872,-1.40214 0.16461,-1.58616 -0.38549,-1.60806 -0.37931,-0.0151 -0.10202,-0.26504 0.71216,-0.64194 1.38496,-0.64113 2.33459,-0.86849 1.54951,-0.37099 -0.4217,0.26723 -1.36609,3.52916 -1.37764,4.7584 -0.007,0.69504 4.23621,3.76138 5.11305,3.69533 0.82994,-0.0625 0.35054,0.35798 -1.02741,0.90116 -1.03385,0.40754 -1.14229,0.36844 -2.77931,-1.00215 -1.91126,-1.6002 -2.10059,-1.52633 -2.44029,0.95206 -0.12712,0.92746 -0.0725,1.60848 0.13955,1.73952 0.19165,0.11845 -0.26977,0.45821 -1.02538,0.75502 -1.1541,0.45334 -1.30845,0.46089 -0.96509,0.0472 z m -55.987411,-0.93974 c -0.8069,-0.42209 -1.31794,-0.85961 -1.13565,-0.97228 0.34253,-0.21169 1.92757,-5.1831 1.71902,-5.39165 -0.0645,-0.0645 -1.31712,0.86697 -2.78349,2.07004 l -2.66613,2.18742 -0.16666,-3.63131 -0.16667,-3.63132 -1.63286,2.46826 c -1.54115,2.32964 -1.59842,2.49345 -1.01962,2.91667 0.85584,0.62581 0.47024,0.55956 -1.22779,-0.21094 -0.79918,-0.36264 -1.21128,-0.66264 -0.91576,-0.66666 0.31397,-0.004 1.63027,-1.66737 3.16667,-4.00094 1.44615,-2.19649 2.74186,-3.99649 2.87936,-4 0.1375,-0.004 0.25,1.86861 0.25,4.16028 0,2.29167 0.0843,4.16667 0.18737,4.16667 0.10306,0 1.64056,-1.19483 3.41667,-2.65517 1.77611,-1.46034 3.26549,-2.47284 3.30974,-2.25 0.0442,0.22284 -0.50296,2.35517 -1.21601,4.7385 -1.18157,3.94931 -1.25058,4.38503 -0.77879,4.91667 0.65347,0.73634 0.56963,0.72162 -1.2194,-0.21423 z m 66.842611,-4.1191 c 0.0806,-0.32083 -0.73497,-2.15833 -1.81227,-4.08333 -1.63178,-2.91577 -2.08702,-3.49469 -2.72726,-3.4682 -0.73818,0.0305 -0.74354,0.013 -0.1356,-0.44363 1.04028,-0.78139 4.40781,-2.4215 4.97192,-2.4215 0.28856,0 0.89283,0.36818 1.34283,0.81818 1.03128,1.03127 1.08643,2.7509 0.12733,3.9702 -0.86302,1.09715 -1.51038,1.16196 -0.80162,0.0802 1.00997,-1.54141 -0.40379,-3.73793 -2.23825,-3.47751 -1.09886,0.15599 -0.94621,0.73021 1.2202,4.59012 1.79911,3.20549 1.96455,3.39513 2.79475,3.20364 0.60801,-0.14024 0.36413,0.10859 -0.78422,0.80011 -1.94304,1.17007 -2.15491,1.21678 -1.95781,0.43167 z m -81.818101,-3.60904 c -1.06365,-0.84125 -1.27544,-1.14096 -0.80626,-1.14096 0.84097,0 4.32688,-4.78282 3.59946,-4.93863 -0.27039,-0.0579 -2.21486,0.35458 -4.32105,0.91666 -2.10618,0.56209 -3.94945,1.01658 -4.09616,1.00999 -0.14671,-0.007 -0.71675,-0.39396 -1.26675,-0.86082 -0.82542,-0.70064 -0.87443,-0.81271 -0.28071,-0.64196 0.61482,0.17682 1.09341,-0.30649 3.29502,-3.32751 1.92142,-2.63656 2.4796,-3.63048 2.19737,-3.91272 -0.95985,-0.95985 -0.21664,-0.79439 1.28832,0.28682 1.81232,1.30201 1.97045,1.4852 1.08136,1.2527 -0.42998,-0.11244 -1.14263,0.61335 -2.68531,2.73479 -1.15499,1.58832 -2.04738,2.94046 -1.98309,3.00476 0.0643,0.0643 2.33685,-0.4524 5.05011,-1.14821 4.75041,-1.21822 4.95982,-1.2434 5.65173,-0.67938 0.66099,0.53881 0.6678,0.5811 0.0851,0.52795 -0.45063,-0.0411 -1.35585,0.94078 -3.13651,3.40214 -2.15186,2.97446 -2.44843,3.54738 -2.11372,4.08333 0.56487,0.90451 0.0806,0.72777 -1.55889,-0.56895 z m 90.571211,-1.2618 c 0.29561,-0.35619 -0.12072,-1.09722 -1.92981,-3.4348 -2.71329,-3.50595 -3.16195,-3.92068 -3.94458,-3.64621 -0.32317,0.11333 0.0874,-0.39041 0.91242,-1.11943 1.48232,-1.30987 2.46812,-1.81107 1.66953,-0.84883 -0.34147,0.41144 -0.0844,0.92443 1.50021,2.99322 1.05176,1.37318 2.09784,2.65067 2.3246,2.83887 0.32288,0.26796 0.4634,-0.76081 0.64787,-4.74323 0.20825,-4.49562 0.31435,-5.16273 0.91485,-5.75208 l 0.67928,-0.66667 -0.20646,0.69485 c -0.15787,0.53132 0.4246,1.49234 2.47489,4.08334 1.47475,1.86366 2.79698,3.38848 2.93829,3.38848 0.14132,0 0.40388,-0.1125 0.58347,-0.25 0.17959,-0.1375 -0.27791,0.30802 -1.01667,0.99005 -1.51008,1.39413 -1.85202,1.53236 -1.62286,0.65607 0.10106,-0.38648 -0.52283,-1.47391 -1.73294,-3.02049 -1.03998,-1.32913 -1.9374,-2.36988 -1.99428,-2.31278 -0.0569,0.0571 -0.1536,2.16575 -0.21493,4.6859 -0.11049,4.53978 -0.11985,4.58825 -1.01469,5.25 -1.04071,0.76964 -1.51676,0.87473 -0.96819,0.21374 z m -52.795301,-0.89095 c -25.38489,-2.89686 -46.19776,-18.95978 -55.38591,-42.74565 -4.61703,-11.95234 -5.42508,-27.234606 -2.11817,-40.060053 6.67628,-25.89322 28.80913,-45.579027 55.33741,-49.219218 4.07345,-0.558955 13.92656,-0.558955 18.000001,0 26.52828,3.640191 48.66113,23.325998 55.33742,49.219218 2.68743,10.422925 2.68743,22.87873 0,33.301663 -6.49428,25.1873 -27.36146,44.41352 -53.00409,48.83593 -4.755391,0.82014 -13.890501,1.15609 -18.166661,0.66811 z m 16.221461,-1.49307 c 23.08361,-3.36095 42.77205,-19.00104 51.39669,-40.82847 2.79435,-7.07201 4.12858,-13.53397 4.43919,-21.500001 1.00347,-25.735585 -13.376,-49.622792 -36.72401,-61.005988 -35.622391,-17.36751 -78.079981,0.728117 -90.628341,38.626232 -9.08969,27.452357 1.49594,57.845917 25.89427,74.347897 9.39314,6.35311 20.05999,9.95506 32.56741,10.99725 2.50392,0.20865 9.63773,-0.1394 13.054791,-0.63692 z M 64.336399,144.1903 c 0.0895,-0.14489 -0.57579,-0.52577 -1.47853,-0.8464 -1.15149,-0.40897 -1.7911,-0.87256 -2.14315,-1.55333 -0.65202,-1.26088 -0.64242,-3.65438 0.0184,-4.59789 0.61393,-0.87649 2.16621,-1.73893 3.12988,-1.73893 0.83399,0 0.90654,-0.55943 0.0999,-0.77022 -0.32083,-0.0838 0.31667,-0.158 1.41667,-0.1648 1.1,-0.007 1.8125,0.0633 1.58333,0.15578 -0.65991,0.26628 -0.48444,0.77924 0.26656,0.77924 0.96367,0 2.51595,0.86244 3.12987,1.73893 0.66087,0.94351 0.67046,3.33701 0.0184,4.59789 -0.35204,0.68077 -0.99165,1.14436 -2.14314,1.55333 -0.90274,0.32063 -1.56808,0.70151 -1.47853,0.8464 0.0895,0.1449 -0.45488,0.26345 -1.20986,0.26345 -0.75497,0 -1.29941,-0.11855 -1.20985,-0.26345 z m 3.54749,-1.57211 c 1.97656,-1.02212 1.95088,-4.55746 -0.0433,-5.95421 -1.4934,-1.04601 -1.62771,-0.80206 -1.62771,2.95644 0,2.2215 0.12781,3.5 0.34989,3.5 0.19244,0 0.78692,-0.226 1.32108,-0.50223 z m -3.0043,-3.16444 c 0,-3.03077 -0.0564,-3.33333 -0.62171,-3.33333 -0.96021,0 -2.30318,1.23252 -2.5456,2.33624 -0.43162,1.96519 0.97471,4.33042 2.57481,4.33042 0.52828,0 0.5925,-0.36131 0.5925,-3.33333 z m 49.500001,4.43456 -1.33334,-0.13019 0.10198,-4.12415 c 0.0926,-3.74548 0.0467,-4.13848 -0.5,-4.28019 -0.33109,-0.0858 0.68972,-0.17343 2.26847,-0.1947 l 2.87044,-0.0387 -0.16725,0.87492 c -0.13904,0.72734 -0.21838,0.78357 -0.47034,0.33333 -0.17294,-0.30899 -0.72538,-0.54155 -1.28653,-0.54155 -0.96117,0 -0.98343,0.0387 -0.98343,1.70927 v 1.70927 l 1.33333,-0.21321 c 1.26648,-0.20251 1.33333,-0.17003 1.33333,0.64788 0,0.7828 -0.0476,0.81346 -0.52381,0.33727 -0.28809,-0.2881 -0.88809,-0.52381 -1.33333,-0.52381 -0.75707,0 -0.80952,0.11648 -0.80952,1.79767 0,1.33174 0.13665,1.85011 0.52726,2 0.85996,0.33 1.39201,0.23544 1.9792,-0.35175 0.51655,-0.51655 0.54638,-0.49962 0.44047,0.25 -0.12264,0.86805 -0.74839,1.00214 -3.44693,0.73864 z m -42.445871,-0.68456 c 0.26993,-0.32083 1.14434,-2.27815 1.94312,-4.34959 0.79879,-2.07144 1.55927,-3.83234 1.68996,-3.91311 0.13069,-0.0808 0.94137,1.65268 1.80153,3.85211 0.86015,2.19943 1.78778,4.22282 2.06139,4.49644 0.44109,0.44109 0.37035,0.49748 -0.6241,0.49748 -1.0166,0 -1.16976,-0.13261 -1.63606,-1.41666 -0.46188,-1.27187 -0.6374,-1.42713 -1.71715,-1.51903 -1.04703,-0.0891 -1.26979,0.0274 -1.72109,0.90012 -0.28512,0.55136 -0.5184,1.23492 -0.5184,1.51902 0,0.33681 -0.30795,0.51655 -0.88499,0.51655 -0.8076,0 -0.84208,-0.051 -0.39421,-0.58333 z m 4.25384,-3.16667 c -0.014,-0.22916 -0.20866,-0.92334 -0.43269,-1.54261 l -0.40734,-1.12595 -0.53238,1.35531 c -0.29281,0.74543 -0.4481,1.4396 -0.34508,1.54262 0.36496,0.36497 1.74247,0.18101 1.71749,-0.22937 z m 5.294,-0.38802 c 0.0926,-3.76003 0.0468,-4.15354 -0.5,-4.29528 -0.33108,-0.0858 0.22303,-0.16159 1.23136,-0.16838 1.00834,-0.007 1.64584,0.0633 1.41667,0.15578 -0.26084,0.10525 -0.41108,0.81223 -0.40173,1.89035 l 0.0149,1.72222 1.46968,-1.64006 c 0.80832,-0.90203 1.39275,-1.76453 1.29872,-1.91666 -0.094,-0.15214 1.0754,-0.27617 2.59872,-0.27563 l 2.76967,9.8e-4 0.0414,1.08235 c 0.0228,0.5953 0.38472,1.83235 0.80428,2.74902 l 0.76283,1.66667 0.92019,-2 c 1.03155,-2.24203 1.16529,-3.03282 0.55459,-3.27924 -0.22917,-0.0925 0.33333,-0.17541 1.25,-0.18431 1.30084,-0.0126 1.53688,0.0594 1.07536,0.32804 -0.32521,0.18932 -1.48887,2.13476 -2.5859,4.3232 -1.59884,3.18948 -2.1337,3.97897 -2.69563,3.97897 h -0.70103 l 0.73123,-0.5921 0.73122,-0.59211 -1.4227,-3.1579 c -0.78248,-1.73684 -1.56328,-3.34539 -1.73511,-3.57455 -0.55293,-0.73745 -1.23247,-0.45282 -3.07166,1.28662 l -1.80098,1.70328 1.56549,1.8133 c 0.86102,0.99732 2.01794,2.10331 2.57093,2.45777 l 1.00544,0.64446 -1.21307,0.006 c -1.34704,0.006 -1.99657,-0.44644 -3.80101,-2.649 l -1.21899,-1.48794 0.11654,2.07189 0.11653,2.07188 h -1 -1 z m 14.65964,3.72136 c 0.18878,-0.22917 1.04775,-2.17917 1.90883,-4.33334 0.86107,-2.15416 1.68438,-3.91666 1.82956,-3.91666 0.145181,0 0.968481,1.7625 1.829561,3.91666 0.86107,2.15417 1.72005,4.10417 1.90883,4.33334 0.26119,0.31707 0.10343,0.41666 -0.65999,0.41666 -0.95876,0 -1.05252,-0.13299 -2.11495,-3 -0.61145,-1.65 -1.202111,-3 -1.312591,-3 -0.11049,0 -0.63963,1.34623 -1.17587,2.99162 -0.86202,2.64497 -1.06662,2.99259 -1.76581,3 -0.59394,0.006 -0.70536,-0.0954 -0.44757,-0.40828 z m 10.341321,-3.58271 0.10293,-4.00063 h -0.87484 c -0.48117,0 -1.16499,0.15528 -1.5196,0.34506 -0.53928,0.28862 -0.64476,0.23409 -0.64476,-0.33333 0,-0.64298 0.20014,-0.67839 3.83334,-0.67839 h 3.83333 v 0.85714 c 0,0.77922 -0.0476,0.80952 -0.52381,0.33333 -0.28809,-0.28809 -0.97191,-0.52381 -1.5196,-0.52381 h -0.99579 l 0.10293,4.00063 0.10294,4.00064 h -1 -1 z m 15.67498,-1.7e-4 0.11125,-4.00046 h -1.17077 c -0.64703,0 -1.41864,0.24787 -1.72485,0.55408 -0.51656,0.51655 -0.54639,0.49962 -0.44048,-0.25 0.11146,-0.78891 0.18434,-0.80585 3.8636,-0.89833 3.59923,-0.0905 3.75,-0.0665 3.75,0.59506 0,0.57821 -0.10392,0.6337 -0.64475,0.34425 -0.35461,-0.18978 -1.02961,-0.34506 -1.5,-0.34506 h -0.85525 v 3.6 c 0,2.35556 0.13827,3.73828 0.4,4 0.31111,0.31112 0.14445,0.4001 -0.75,0.40046 l -1.15,4.5e-4 z m -69.194581,-9.23023 c 0.8146,-0.21288 0.73045,-0.77023 -0.11629,-0.77023 -1.18392,0 -2.97127,-1.04128 -3.48172,-2.02839 -1.24103,-2.39988 -0.0413,-5.12875 2.62859,-5.97907 0.87636,-0.27911 1.48424,-0.61661 1.35084,-0.75 -0.13339,-0.1334 0.31632,-0.24254 0.99937,-0.24254 0.68304,0 1.1599,0.13267 1.05969,0.29481 -0.10021,0.16214 0.45935,0.45634 1.24346,0.65379 0.78411,0.19744 1.77462,0.73044 2.20113,1.18444 0.93448,0.9947 1.25623,3.32766 0.62388,4.52363 -0.55946,1.0581 -2.46532,2.34333 -3.47491,2.34333 -0.91256,0 -1.05508,0.54696 -0.2007,0.77023 0.32083,0.0838 -0.31667,0.15244 -1.41667,0.15244 -1.1,0 -1.7375,-0.0686 -1.41667,-0.15244 z m 0.58334,-4.93689 c 0,-1.9959 -0.13651,-3.5 -0.31765,-3.5 -0.77035,0 -1.97275,0.80728 -2.31226,1.55244 -0.49233,1.08054 -0.44965,2.7614 0.0951,3.7442 0.40222,0.7257 1.66742,1.66237 2.28483,1.69155 0.1375,0.006 0.25,-1.56319 0.25,-3.48819 z m 3.65818,2.84181 c 1.79224,-1.79224 0.99184,-5.26797 -1.40818,-6.11501 -0.53152,-0.18759 -0.58334,0.10408 -0.58334,3.28366 0,3.26731 0.0425,3.48954 0.66667,3.48954 0.36667,0 0.96285,-0.29619 1.32485,-0.65819 z m 4.58464,1.38785 c 0.56907,-0.36151 0.92772,-5.57612 0.4915,-7.14633 l -0.34725,-1.25 1.05646,-7.5e-4 1.05647,-7.5e-4 -0.10854,2.2793 c -0.0597,1.25361 -0.0597,2.78936 0,3.41277 l 0.10854,1.13346 2.82121,-3.41201 c 1.55168,-1.87661 3.05168,-3.4123 3.33334,-3.41265 0.43792,-5.4e-4 0.49719,0.57949 0.40912,4.00347 -0.10071,3.91575 -0.086,4.01091 0.66667,4.31284 0.60389,0.24223 0.3389,0.31218 -1.23034,0.32475 -1.31176,0.0105 -1.83655,-0.0874 -1.52503,-0.28457 0.33133,-0.2097 0.52065,-1.19102 0.62603,-3.2449 0.15074,-2.93806 0.14963,-2.94301 -0.52443,-2.33996 -0.37152,0.33239 -1.62823,1.79349 -2.7927,3.24689 -1.92005,2.39647 -2.22585,2.64236 -3.28387,2.64056 -0.68713,-0.001 -0.99836,-0.10891 -0.75718,-0.26212 z m 11.55369,-0.20542 c -0.10041,-0.26167 -0.12248,-0.82417 -0.0491,-1.25 l 0.13352,-0.77424 0.36726,0.8711 c 0.72717,1.72473 3.41842,1.28337 3.41842,-0.56061 0,-0.87714 -1.32094,-2.46763 -2.06818,-2.49021 -0.2375,-0.007 0.0557,-0.22493 0.65152,-0.48391 0.73209,-0.3182 1.08333,-0.69932 1.08333,-1.17553 0,-2.02104 -1.90176,-2.75045 -2.80934,-1.07751 -0.45555,0.8397 -0.49842,0.85569 -0.51065,0.19048 -0.007,-0.39941 0.22237,-0.96191 0.51047,-1.25 0.64384,-0.64385 2.79385,-0.68584 3.6347,-0.071 0.78146,0.57142 0.81531,2.32196 0.061,3.15545 -0.52404,0.57906 -0.51724,0.65398 0.11111,1.22263 0.99223,0.89795 0.88912,2.61453 -0.20892,3.47825 -1.06607,0.83857 -4.0294,0.98594 -4.3252,0.2151 z m 7.32784,0.0479 c 0.51152,-0.37404 0.57194,-0.91912 0.48038,-4.33399 l -0.10473,-3.90615 1.15,6.6e-4 c 0.89444,5e-4 1.06111,0.0895 0.75,0.40065 -0.44695,0.44694 -0.575,6.26667 -0.13789,6.26667 0.14416,0 1.50398,-1.5 3.02182,-3.33334 1.73471,-2.09528 2.99614,-3.33333 3.3963,-3.33333 0.54561,0 0.59014,0.1222 0.31152,0.85503 -0.72347,1.90287 -0.26958,7.34932 0.63251,7.58974 0.29832,0.0795 -0.34877,0.16196 -1.43797,0.18323 -1.67628,0.0327 -1.89156,-0.0263 -1.40195,-0.3843 0.48314,-0.35327 0.56228,-0.87325 0.48038,-3.15612 l -0.0981,-2.73314 -2.63355,3.15613 c -2.41629,2.89575 -2.73091,3.15612 -3.81371,3.15612 -1.04225,0 -1.11178,-0.05 -0.59505,-0.42784 z m 15.79231,0.19261 c 0.65684,-0.12651 0.75,-0.34861 0.75,-1.78794 v -1.64348 h -1.615 c -2.08202,0 -2.78364,-0.73168 -3.05362,-3.18441 l -0.19984,-1.81559 1.01756,-2.1e-4 c 1.01508,-2e-4 1.01728,0.004 0.90142,1.6763 -0.1406,2.02925 0.29711,2.65724 1.85207,2.65724 h 1.1543 l -0.11178,-2.16736 -0.11177,-2.16737 1,9e-5 1,1e-4 -0.10201,4.14164 c -0.1009,4.09636 -0.0936,4.14325 0.66666,4.28854 0.422771,0.0808 -0.28132,0.14691 -1.56465,0.14691 -1.28334,0 -1.99584,-0.065 -1.58334,-0.14446 z m 5.518641,0.002 c 0.54663,-0.14168 0.5926,-0.53438 0.5,-4.27119 l -0.10197,-4.11516 2.27919,-0.10681 c 1.25355,-0.0587 2.32474,-0.0606 2.38041,-0.004 0.0557,0.0565 0.0217,0.40663 -0.0754,0.77818 -0.0972,0.37155 -0.26834,0.53645 -0.38041,0.36644 -0.11206,-0.17 -0.69125,-0.40393 -1.28709,-0.51984 l -1.08337,-0.21104 v 1.69335 1.69334 l 1.33333,-0.12715 c 1.29163,-0.12318 1.33302,-0.0956 1.3232,0.88165 -0.009,0.84654 -0.0648,0.91498 -0.3499,0.42548 -0.2042,-0.3506 -0.73907,-0.58334 -1.34061,-0.58334 -0.99796,0 -1.00057,0.005 -0.90011,1.75 0.0945,1.64206 0.15854,1.75663 1.03758,1.85742 0.51525,0.0591 1.15275,-0.0718 1.41667,-0.29081 0.39193,-0.32528 0.47984,-0.26862 0.47984,0.30925 0,0.67012 -0.15399,0.70544 -2.91667,0.66881 -1.60416,-0.0213 -2.64577,-0.10888 -2.31469,-0.1947 z m 9.37084,-0.0896 c -0.38162,-0.15439 -1.09412,-0.75639 -1.58333,-1.33778 -0.72104,-0.8569 -0.88948,-1.3946 -0.88948,-2.83927 0,-3.13797 2.20783,-4.77824 5.9164,-4.39548 1.00125,0.10334 1.86641,0.23459 1.92259,0.29168 0.0562,0.0571 0.0268,0.49589 -0.0653,0.97512 l -0.16742,0.87132 -0.82848,-0.82848 c -0.70816,-0.70815 -1.04767,-0.80378 -2.3375,-0.6584 -0.82996,0.0935 -1.72959,0.39067 -1.99918,0.66026 -0.72336,0.72336 -1.09265,2.77751 -0.7333,4.07897 0.72092,2.61096 4.14643,3.80964 5.60132,1.96005 0.74434,-0.94627 0.88615,-0.67878 0.36577,0.68992 -0.30264,0.79601 -0.46947,0.85358 -2.41666,0.83391 -1.15037,-0.0116 -2.40382,-0.14744 -2.78544,-0.30182 z m 7.27719,-0.0371 c 0.50141,-0.29213 0.58333,-0.87193 0.58333,-4.12884 0,-2.7193 -0.11763,-3.83646 -0.41667,-3.95712 -0.22916,-0.0925 0.25084,-0.17997 1.06667,-0.19444 1.1537,-0.0205 1.39444,0.0626 1.08333,0.37368 -0.45954,0.45955 -0.54848,2.93333 -0.10545,2.93333 0.38687,0 2.70545,-2.57183 2.70545,-3.00096 0,-0.1828 0.5625,-0.32286 1.25,-0.31124 0.99255,0.0168 1.1127,0.0789 0.58334,0.30157 -0.36667,0.15424 -1.33636,0.97071 -2.15488,1.81438 l -1.48821,1.53395 2.15488,2.17738 c 2.23633,2.25968 3.50404,2.92632 4.01888,2.11337 0.45544,-0.71915 0.37342,-7.09102 -0.0973,-7.56178 -0.31111,-0.31111 -0.14444,-0.40016 0.75,-0.40073 l 1.15,-7.2e-4 -0.10704,3.40718 c -0.12581,4.00448 -0.29698,4.03191 3.44758,-0.55236 1.27937,-1.56627 2.55113,-2.84931 2.82613,-2.8512 0.42256,-0.003 0.48405,0.61674 0.39701,4.00067 -0.10072,3.91575 -0.086,4.01091 0.66667,4.31284 0.60909,0.24432 0.36485,0.31314 -1.17083,0.32986 -1.76407,0.0192 -1.89285,-0.0265 -1.41666,-0.50268 0.38217,-0.38218 0.52381,-1.19336 0.52381,-3 0,-1.36191 -0.13403,-2.47619 -0.29784,-2.47619 -0.16381,0 -1.40131,1.34592 -2.75,2.99094 l -2.45216,2.99093 -2.38077,0.009 -2.38076,0.009 -1.85164,-2 c -1.01841,-1.1 -1.93457,-2 -2.03591,-2 -0.27439,0 -0.21295,2.77508 0.0709,3.20002 0.13469,0.20167 0.46989,0.45233 0.74489,0.55701 0.275,0.10469 -0.4,0.19762 -1.5,0.20651 -1.51241,0.0122 -1.85778,-0.0666 -1.41666,-0.32358 z M 75.712919,115.00359 c -4.40755,-2.04881 -5.53693,-10.72784 -2.99633,-23.026179 0.45179,-2.186987 0.78579,-3.998138 0.74222,-4.024782 -0.0436,-0.02664 -1.72922,-0.387404 -3.74589,-0.801691 -17.19104,-3.531579 -24.48383,-10.856632 -17.10069,-17.17633 3.09598,-2.650045 10.06719,-5.459377 17.10069,-6.891419 2.01667,-0.4106 3.70232,-0.768344 3.74589,-0.794988 0.0436,-0.02664 -0.29043,-1.837795 -0.74222,-4.024781 -1.1571,-5.601196 -1.58914,-11.112598 -1.16479,-14.858631 1.26138,-11.134882 8.58798,-11.448315 18.33503,-0.784374 1.00542,1.1 2.17854,2.449817 2.60694,2.999595 l 0.7789,0.999595 1.02461,-1.332929 c 1.91917,-2.496648 7.076531,-7.348021 9.149211,-8.606381 9.78243,-5.939089 14.14351,3.063199 10.41567,21.500392 -0.35886,1.774816 -0.73573,3.443936 -0.83751,3.709154 -0.13909,0.362462 0.21313,0.541574 1.41828,0.721231 5.62208,0.838111 14.00473,3.645921 17.32425,5.802849 10.41775,6.769144 4.40804,14.500639 -14.53636,18.701046 -2.30151,0.510298 -4.15437,1.073357 -4.11747,1.251243 2.19963,10.603597 2.60395,15.81843 1.59556,20.57893 -1.4883,7.02603 -6.08346,8.39563 -12.57103,3.74683 -2.02153,-1.44856 -5.699721,-5.0637 -7.802191,-7.66844 l -1.0199,-1.26355 -2.4681,2.88201 c -2.74585,3.20632 -6.49791,6.39335 -9.04844,7.68581 -2.03203,1.0297 -4.69005,1.32483 -6.08633,0.67579 z m 7.79509,-7.70301 c 1.76941,-0.62429 3.91146,-2.1041 6.20101,-4.2839 l 1.81669,-1.7296 -1.90639,-2.855061 c -1.04852,-1.570285 -2.71336,-4.285441 -3.69964,-6.033679 l -1.79325,-3.178615 -3.54009,-0.383469 c -1.94704,-0.210908 -3.78903,-0.383253 -4.0933,-0.382988 -0.75999,6.61e-4 -1.37712,3.724324 -1.4088,8.500481 -0.0304,4.581641 0.8301,7.770771 2.5308,9.379591 0.60383,0.57121 1.32288,1.12014 1.59788,1.21984 0.95626,0.34669 2.92463,0.23092 4.29509,-0.2526 z m 24.748561,-0.32784 c 2.77832,-1.88791 3.89638,-7.518493 2.94648,-14.838444 -0.5169,-3.983161 -0.31631,-3.768752 -3.27071,-3.496171 -5.82856,0.53776 -5.26508,0.243905 -7.31694,3.815826 -1.000421,1.741556 -2.627701,4.412895 -3.616171,5.936309 -1.3064,2.0134 -1.71694,2.9133 -1.50325,3.29514 0.55759,0.99637 4.555441,4.13339 6.520181,5.11624 2.52758,1.26442 4.54986,1.31986 6.24041,0.1711 z M 95.858979,95.857368 c 1.203,-1.680012 2.60843,-3.808104 3.12317,-4.729093 l 0.9359,-1.674526 h -6.70557 c -5.27595,0 -6.65212,0.08883 -6.45485,0.416667 2.56769,4.267238 6.17582,9.259591 6.60135,9.133901 0.17199,-0.0508 1.29699,-1.466937 2.5,-3.146949 z m 1.32426,-8.289396 4.074981,-0.219109 1.27017,-2.530891 c 1.8619,-3.709917 4.01786,-8.896458 4.01786,-9.665656 0,-0.786539 -2.56395,-6.910821 -4.21653,-10.071656 l -1.15358,-2.206421 -4.231611,-0.127584 c -2.32738,-0.07017 -5.88161,-0.05228 -7.89827,0.03975 l -3.66667,0.167339 -1.2356,2.333334 c -0.67958,1.283333 -1.93966,4.023994 -2.80017,6.090357 l -1.56457,3.757025 0.96625,2.409642 c 0.53144,1.325304 1.79151,4.059643 2.80017,6.07631 l 1.83392,3.666666 2.66667,0.188874 c 4.43815,0.314343 4.91319,0.319127 9.13698,0.09202 z m -7.66789,-6.223436 c -1.95897,-1.0346 -3.36483,-3.294873 -3.5672,-5.73517 -0.20381,-2.457726 1.01009,-5.009191 3.01898,-6.345484 1.64541,-1.094515 4.45781,-1.455224 6.3856,-0.818997 4.729671,1.560932 6.202041,7.812439 2.73787,11.624637 -1.95241,2.148559 -5.82967,2.72505 -8.57525,1.275014 z m -6.74015,5.359213 c -1.00624,-2.386135 -3.68145,-8.144026 -3.88224,-8.355814 -0.14208,-0.149864 -0.74201,1.473837 -1.33318,3.608224 -0.59117,2.134387 -0.97728,3.978278 -0.85802,4.097537 0.18202,0.182022 4.30654,0.916045 5.79683,1.031636 0.24878,0.0193 0.37326,-0.152416 0.27661,-0.381583 z m 23.437721,0.0744 c 1.19167,-0.185476 2.56618,-0.41841 3.05448,-0.51763 l 0.88782,-0.180401 -0.83849,-3.063185 c -1.55189,-5.669345 -1.31279,-5.641041 -3.66866,-0.434293 -1.12925,2.495776 -1.95162,4.536642 -1.8275,4.535257 0.12413,-0.0014 1.20068,-0.154272 2.39235,-0.339748 z m -30.265831,-6.560696 1.68443,-5.069628 -1.69736,-5.097039 c -0.99489,-2.987561 -1.88849,-5.137646 -2.15916,-5.195157 -0.81934,-0.174087 -6.98458,1.961335 -9.66798,3.348647 -10.15301,5.249082 -7.42726,12.217052 6.43924,16.460949 1.375,0.420824 2.77369,0.732897 3.1082,0.693495 0.47181,-0.05557 0.98595,-1.208541 2.29263,-5.141267 z m 41.192181,4.061515 c 4.60785,-1.541885 7.1892,-2.936903 9.30004,-5.025951 1.8732,-1.853864 2.35921,-3.18338 1.95376,-5.344621 -0.35041,-1.867829 -3.11427,-4.419392 -6.57765,-6.072392 -2.531,-1.208 -8.00929,-3.048923 -9.0731,-3.048923 -0.21781,0 -1.17155,2.335734 -2.11941,5.190519 l -1.7234,5.19052 1.729,5.142814 c 1.42274,4.231899 1.84155,5.142814 2.36448,5.142814 0.34953,0 2.21535,-0.528651 4.14628,-1.17478 z M 81.015519,67.483672 c 1.0276,-2.275209 1.82013,-4.184971 1.76119,-4.243917 -0.14562,-0.145613 -5.92799,0.800422 -6.13057,1.003002 -0.0887,0.08867 0.32247,1.907528 0.91364,4.041915 0.59117,2.134387 1.19017,3.758087 1.33112,3.608223 0.14094,-0.149864 1.09702,-2.134014 2.12462,-4.409223 z m 28.299871,-0.254898 0.83716,-3.058308 -2.38648,-0.376604 c -1.31257,-0.207132 -2.80081,-0.455713 -3.30721,-0.552402 l -0.92073,-0.175799 1.20318,2.610711 c 0.66175,1.43589 1.59462,3.499589 2.07305,4.585997 l 0.86988,1.975287 0.397,-0.975287 c 0.21835,-0.536408 0.77371,-2.351526 1.23415,-4.033595 z M 82.646899,61.231279 c 1.52368,-0.191663 1.64185,-0.282662 2.45771,-1.892682 1.01888,-2.010671 4.17805,-7.173938 5.53821,-9.051516 l 0.9659,-1.333333 -2.28123,-2.100144 c -2.67897,-2.466305 -6.27193,-4.399856 -8.17591,-4.399856 -3.95916,0 -6.09131,3.805886 -6.0691,10.833333 0.006,2.016667 0.20512,4.773336 0.44165,6.125931 l 0.43006,2.459264 2.54603,-0.219827 c 1.40032,-0.120905 3.26633,-0.310432 4.14668,-0.42117 z m 28.461011,-2.277531 c 0.21724,-1.466666 0.40239,-4.016666 0.41146,-5.666667 0.0622,-11.325529 -6.03518,-14.140903 -14.077331,-6.5 l -2.28044,2.166667 2.83025,4.515261 c 1.55664,2.483394 3.167991,5.21042 3.580781,6.060059 l 0.75052,1.544796 2.52822,0.214562 c 1.39052,0.118009 2.67822,0.270196 2.86155,0.338195 0.18333,0.068 0.93333,0.09442 1.66667,0.05871 l 1.33333,-0.06492 z m -11.228531,1.818005 c 0.001,-0.919543 -6.28383,-9.721146 -6.74012,-9.439144 -0.63594,0.393033 -6.59227,9.002208 -6.59316,9.529636 -8e-5,0.05033 2.99982,0.0915 6.66646,0.0915 3.66664,0 6.66671,-0.0819 6.66682,-0.181995 z m -61.76066,92.090967 -0.8856,-0.92437 1.35986,-2.82563 c 1.46708,-3.04842 2.00446,-4.32564 1.82001,-4.32564 -0.0642,0 -1.57671,0.67761 -3.36109,1.5058 -2.75652,1.27939 -3.18265,1.5801 -2.83417,2 0.22559,0.27181 0.27021,0.4942 0.0992,0.4942 -0.52931,0 -3.43277,-3.36586 -3.64997,-4.23126 -0.11303,-0.45035 0.038,-2.03308 0.33571,-3.5172 0.29766,-1.48411 0.49894,-2.74066 0.44727,-2.79232 -0.0517,-0.0517 -0.80983,0.51799 -1.68482,1.2659 -1.08342,0.92609 -1.52917,1.53237 -1.39739,1.9007 0.10642,0.29747 -0.32924,-0.0592 -0.96813,-0.79248 -1.32036,-1.51555 -1.43815,-1.83669 -0.59255,-1.61556 0.37798,0.0988 1.77589,-0.73097 3.84293,-2.28121 2.67852,-2.00884 3.22601,-2.56823 3.1188,-3.18657 -0.18935,-1.09206 0.13823,-0.89952 1.39237,0.8184 0.73477,1.00647 0.924,1.45389 0.55505,1.31231 -0.35355,-0.13567 -1.11819,0.18449 -2.0752,0.8689 l -1.51538,1.08373 2.40974,0.30002 c 1.75973,0.2191 2.47458,0.19513 2.6501,-0.0889 0.15695,-0.25394 0.61372,0.0757 1.3163,0.94998 1.14587,1.42588 1.13449,1.62205 -0.0505,0.8709 -0.40605,-0.25735 -1.41328,-0.56538 -2.23828,-0.68448 -0.825,-0.1191 -1.89056,-0.29061 -2.36791,-0.38114 -0.86129,-0.16335 -0.87242,-0.13827 -1.4603,3.29154 -0.61888,3.61058 -0.44164,4.90874 0.6702,4.90874 0.26686,0 2.53688,-0.8997 5.04449,-1.99933 2.50762,-1.09963 4.62682,-1.93181 4.70934,-1.84929 0.0825,0.0825 -0.758,2.28535 -1.86783,4.89517 -1.54336,3.62927 -1.94184,4.8872 -1.69454,5.34929 0.48238,0.90133 -0.12168,0.72981 -1.12765,-0.3202 z m 112.031751,-0.32359 c -0.84987,-0.98942 -1.00853,-1.43141 -0.6641,-1.84998 0.23112,-0.28088 -0.3128,-1.74828 -1.80464,-4.86857 -1.17451,-2.45658 -2.13548,-4.51908 -2.13548,-4.58334 0,-0.32027 1.1551,0.0252 5.26441,1.57462 3.17932,1.19874 4.58968,1.5878 4.84182,1.33566 0.25214,-0.25214 0.57977,-0.14533 1.12477,0.36667 0.42295,0.39734 0.769,0.87629 0.769,1.06433 0,0.20136 -0.16442,0.17748 -0.4,-0.0581 -0.79222,-0.79222 -1.53177,-0.35594 -3.98355,2.35 -3.04598,3.36174 -3.0704,3.40178 -2.60485,4.27166 0.4863,0.90866 0.23905,1.14964 -0.40738,0.39705 z m 3.37396,-6.55043 c 0.034,-0.16411 -1.29724,-0.85898 -2.95822,-1.54415 -1.66098,-0.68518 -3.01996,-1.18541 -3.01996,-1.11163 0,0.0738 0.69155,1.5111 1.53677,3.19403 l 1.53676,3.05988 1.42145,-1.64987 c 0.7818,-0.90743 1.44924,-1.78415 1.4832,-1.94826 z m 0.36105,-5.91172 c -3.16233,-1.92778 -3.40669,-5.12456 -0.65755,-8.60248 0.73361,-0.92808 1.44284,-1.68202 1.57607,-1.67543 0.13324,0.007 0.69225,0.38312 1.24225,0.83673 l 1,0.82475 -1.00526,-0.19612 c -2.10202,-0.41008 -4.2219,2.486 -3.4754,4.74792 0.47829,1.44923 2.91338,3.10807 4.56248,3.10807 2.3558,0 4.25685,-1.81815 4.02023,-3.84492 -0.11055,-0.94694 -0.0497,-1.06131 0.42867,-0.80531 1.18869,0.63617 0.94599,1.80677 -0.86757,4.18447 -1.60215,2.10053 -4.66438,2.73879 -6.82392,1.42232 z m 10.39616,-8.20656 c 0.0745,-0.44374 -0.84401,-1.06195 -3.83825,-2.58334 -3.80956,-1.93565 -3.95166,-1.97918 -4.41667,-1.35295 -0.72748,0.9797 -0.57746,0.35554 0.35848,-1.49146 0.77924,-1.53776 1.37696,-2.27277 0.95587,-1.17542 -0.12598,0.3283 0.36662,0.75932 1.55741,1.36274 1.08789,0.55128 1.67971,0.71513 1.57661,0.4365 -0.0908,-0.24534 -0.42752,-1.24427 -0.7483,-2.21984 -0.32078,-0.97558 -0.78833,-1.85248 -1.039,-1.94867 -0.36715,-0.14089 -0.32669,-0.42792 0.20812,-1.47623 0.72209,-1.4154 1.01855,-1.67334 0.75207,-0.65435 -0.13569,0.51889 0.92098,4.47288 1.44541,5.40858 0.17149,0.30599 5.3712,-1.30188 6.70286,-2.07268 1.25301,-0.72528 1.33047,-0.55895 0.42859,0.92019 -0.54081,0.88696 -1.06743,1.19002 -3.08209,1.77368 -3.95016,1.14439 -3.88258,1.0753 -1.9412,1.98459 1.42176,0.66592 1.83257,0.73585 2.36593,0.40276 0.82263,-0.51374 0.81521,-0.45689 -0.20543,1.57518 -0.87643,1.74492 -1.25167,2.13069 -1.08041,1.11072 z m -142.402051,-0.397 c 0,-0.89756 0.63058,-1.19862 1.23809,-0.5911 0.60752,0.60752 0.30647,1.2381 -0.5911,1.2381 -0.41821,0 -0.64699,-0.22878 -0.64699,-0.647 z m -2.24117,-4.603 c -0.81859,-0.90293 -2.80281,-5.26065 -2.05472,-4.51256 0.42329,0.42329 1.79102,-0.0346 6.23188,-2.08642 2.21006,-1.02112 2.42616,-1.2053 2.2188,-1.89116 -0.39371,-1.30228 0.34963,-0.22088 1.12406,1.63526 1.39899,3.3531 0.7248,5.07573 -1.82457,4.66203 -1.02021,-0.16556 -1.12095,-0.10754 -1.12095,0.64562 0,0.45514 -0.36818,1.19571 -0.81818,1.64571 -1.13462,1.13462 -2.675,1.09424 -3.75632,-0.0985 z m 2.25963,-0.75988 c 0.99138,-0.53057 1.73836,-2.19883 1.32794,-2.9657 -0.33279,-0.62183 -0.37923,-0.61988 -2.05229,0.0863 -1.9188,0.80995 -2.2143,1.23434 -1.67841,2.41049 0.39581,0.8687 1.31904,1.04886 2.40276,0.46887 z m 3.99581,-2.66443 c 0.85945,-0.45996 1.40894,-1.55762 1.07684,-2.15106 -0.22923,-0.40959 -0.5123,-0.37084 -1.8584,0.25442 -1.54939,0.71969 -1.5751,0.75584 -1.05811,1.48761 0.59075,0.83618 0.90923,0.90699 1.83967,0.40903 z m 143.485731,-2.49485 c -0.18334,-0.28413 -2.1192,-1.05938 -4.30193,-1.72279 -3.8598,-1.17312 -3.98199,-1.18885 -4.45723,-0.57379 -0.45357,0.58701 -0.47488,0.55719 -0.29684,-0.41547 0.1055,-0.57633 0.41152,-1.55133 0.68005,-2.16667 0.37385,-0.85668 0.4946,-0.95651 0.51542,-0.42611 0.0229,0.58244 0.5693,0.85824 3.43325,1.73283 1.87333,0.57208 3.44351,1.0027 3.48929,0.95692 0.0458,-0.0458 -1.19189,-2.01072 -2.75037,-4.36655 -2.51355,-3.79951 -2.79769,-4.38117 -2.51561,-5.1496 0.2112,-0.57533 0.32684,-0.67036 0.34432,-0.28295 0.0145,0.32084 0.082,0.58334 0.15,0.58334 0.068,0 1.83052,0.52454 3.91666,1.16564 4.28625,1.31724 4.95965,1.40035 4.95965,0.61213 0,-0.30555 0.0839,-0.47167 0.1864,-0.36916 0.10251,0.10252 -0.0685,1.06316 -0.38001,2.13476 -0.45472,1.56418 -0.61595,1.81445 -0.81763,1.26923 -0.18374,-0.49668 -1.03549,-0.92226 -3.17057,-1.58418 -1.60563,-0.49778 -2.96018,-0.86421 -3.0101,-0.81429 -0.0499,0.0499 1.03311,1.79675 2.40673,3.88185 2.3017,3.49389 2.4761,3.87968 2.22467,4.92127 -0.22091,0.91515 -0.33624,1.0319 -0.60615,0.61359 z M 15.483849,117.53708 c -0.20858,-0.50416 -0.43768,-1.96666 -0.50911,-3.25 -0.10487,-1.88419 -0.006,-2.53095 0.5148,-3.36001 1.28142,-2.04073 4.81286,-2.79429 6.95994,-1.48515 1.35153,0.82407 2.43491,2.92493 2.66675,5.1713 0.16727,1.62071 0.12498,1.75571 -0.61181,1.95291 -1.4138,0.37841 -1.8275,0.25901 -1.03233,-0.29795 1.35011,-0.94565 0.74635,-4.58617 -0.90737,-5.47122 -0.35272,-0.18876 -1.18098,-0.34321 -1.84059,-0.34321 -2.45679,0 -4.54234,1.53193 -5.01495,3.68371 -0.27683,1.26037 0.698,3.32566 1.83708,3.89208 0.8136,0.40457 0.80355,0.4145 -0.42492,0.4193 -1.06067,0.004 -1.3178,-0.13903 -1.63749,-0.91176 z m -3.18759,-10.15683 c -1.09785,-0.52947 -0.91636,-0.81205 0.42125,-0.6559 0.6442,0.0752 1.3942,-0.0483 1.66667,-0.27441 0.4169,-0.346 0.49541,-0.27263 0.49541,0.46299 0,0.73687 -0.14396,0.87061 -0.91667,0.85159 -0.50416,-0.0124 -1.25416,-0.18533 -1.66666,-0.38427 z m 151.613701,-1.78543 c -1.25511,-1.0561 -1.17806,-1.35123 0.17003,-0.65133 0.53145,0.27591 1.24255,0.41411 1.58024,0.30711 0.46527,-0.14744 0.58544,-0.0464 0.49617,0.41713 -0.18096,0.93964 -1.07768,0.91054 -2.24644,-0.0729 z M 11.879589,105.36357 c -0.80707,-0.36923 -0.79145,-0.38511 0.49577,-0.50371 0.73101,-0.0673 1.51851,-0.27964 1.75,-0.47176 0.32077,-0.26622 0.4209,-0.14137 0.4209,0.52483 0,0.73652 -0.14433,0.87083 -0.91667,0.85302 -0.50417,-0.0116 -1.29167,-0.19269 -1.75,-0.40238 z m 152.411771,-1.74404 -1.24511,-1.16756 1.28891,0.52162 c 0.70891,0.28689 1.49641,0.442 1.75,0.34469 0.49747,-0.1909 0.5792,0.1065 0.25876,0.94154 -0.29703,0.77406 -0.66752,0.65849 -2.05256,-0.64029 z M 14.650859,99.489857 c -1.35607,-0.85178 -1.88238,-1.85046 -1.88238,-3.571856 0,-3.776703 4.49981,-5.410514 7.14543,-2.59439 0.63949,0.680712 0.79901,1.209893 0.79901,2.650583 0,1.572044 -0.13209,1.932163 -1.04278,2.842853 -1.3666,1.366603 -3.46657,1.648093 -5.01928,0.67281 z m 152.861351,-0.13163 c -3.01832,-2.031135 -2.0552,-6.753124 1.51397,-7.422705 3.15721,-0.592295 5.87073,2.988306 4.42697,5.841556 -0.58645,1.158979 -2.47682,2.343342 -3.74023,2.343342 -0.58744,0 -1.57776,-0.342983 -2.20071,-0.762193 z M 16.217289,86.884669 c -1.18064,-0.2345 -2.59875,-1.324245 -3.17606,-2.440646 -0.58105,-1.123619 -0.65303,-4.437407 -0.12903,-5.940533 0.37547,-1.077076 0.79178,-1.22437 2.30072,-0.814013 l 0.83334,0.226625 -0.80329,0.193425 c -1.20634,0.290478 -2.06713,1.669916 -2.09031,3.349798 -0.0169,1.22225 0.14656,1.608466 1.00532,2.375767 1.24916,1.116123 3.03412,1.496956 4.69039,1.000725 1.81611,-0.54412 2.76414,-1.719804 2.95047,-3.658983 0.13718,-1.427608 0.0593,-1.700327 -0.62205,-2.177544 -0.73521,-0.514959 -0.74091,-0.545541 -0.10175,-0.545541 0.37242,0 0.96389,0.209684 1.31437,0.465964 0.58968,0.431183 0.60833,0.6348 0.24981,2.727816 -0.39871,2.327647 -1.03202,3.497094 -2.44689,4.518304 -0.89779,0.647998 -2.69521,0.973038 -3.97504,0.718836 z m 156.745631,-0.45762 c 0.39977,-0.232845 0.58333,-0.754118 0.58333,-1.65653 0,-1.264591 -0.0429,-1.316533 -1.08333,-1.310791 -1.92125,0.0106 -7.28295,0.939739 -7.77384,1.347137 -0.39741,0.329825 -0.47616,0.199993 -0.47616,-0.785039 0,-0.64912 -0.0504,-1.379987 -0.11203,-1.624148 -0.0616,-0.244161 -0.0491,-0.331429 0.0278,-0.193929 0.19576,0.350031 2.7449,0.269675 6.08426,-0.191793 2.73674,-0.378192 2.83014,-0.419951 2.73966,-1.224874 -0.19368,-1.723075 -0.42352,-2.288914 -0.98989,-2.436935 -0.32071,-0.08382 -0.11881,-0.169797 0.44865,-0.191064 l 1.03175,-0.03867 0.41203,3.416667 c 0.22662,1.879167 0.49358,3.829167 0.59325,4.333334 0.16924,0.856076 0.10686,0.915996 -0.94378,0.90653 -0.92575,-0.0083 -1.02169,-0.07031 -0.54167,-0.349897 z M 162.8711,76.370415 c -0.20214,-0.779166 -0.50709,-1.941666 -0.67766,-2.583333 -0.32838,-1.235297 -0.39565,-2.499806 -0.0931,-1.75 0.23287,0.577129 1.07112,0.524481 4.2237,-0.265282 4.20615,-1.053696 4.88602,-1.31997 4.92076,-1.927235 0.0175,-0.306616 0.36959,0.717517 0.78232,2.27585 0.41274,1.558334 0.68953,2.945834 0.6151,3.083334 -0.0744,0.1375 -0.53014,0.25 -1.01269,0.25 -0.76328,0 -0.80822,-0.05418 -0.34562,-0.416667 0.70799,-0.554751 0.42589,-2.584149 -0.35883,-2.581474 -0.6267,0.0021 -3.0455,0.641669 -3.0455,0.805233 0,0.06 0.21834,0.727949 0.48521,1.484332 0.40683,1.153087 0.41124,1.375242 0.0273,1.375242 -0.25187,0 -0.73272,0.09708 -1.06854,0.215727 -0.49958,0.176502 -0.53484,0.134077 -0.19393,-0.233334 0.4813,-0.518721 0.53684,-1.609881 0.11577,-2.274647 -0.24014,-0.379136 -0.58258,-0.388896 -1.96967,-0.05614 -0.92344,0.22153 -1.76113,0.616847 -1.86153,0.878482 -0.24385,0.635476 0.3533,2.143813 1.06186,2.682144 0.51254,0.389402 0.4788,0.434303 -0.33359,0.443832 -0.78638,0.0092 -0.95157,-0.173474 -1.27133,-1.406066 z M 17.379589,75.166895 c -1.71565,-1.059747 -2.26922,-1.934753 -2.42689,-3.836093 -0.19064,-2.298762 0.76021,-4.573935 2.32088,-5.553386 1.39947,-0.878282 4.19033,-0.764187 5.5159,0.225499 1.70244,1.271051 2.25756,2.35897 2.24635,4.402349 -0.0121,2.197527 -0.86214,3.872973 -2.43465,4.798485 -1.32263,0.778446 -3.93149,0.760033 -5.22159,-0.03685 z m 5.0072,-1.572237 c 1.05588,-0.501049 2.15947,-2.151556 2.15947,-3.229666 0,-0.268402 -0.32519,-0.90141 -0.72264,-1.406684 -1.89722,-2.41193 -6.58051,-2.485691 -7.80236,-0.122884 -0.74666,1.443868 -0.59402,2.716041 0.44166,3.681041 1.67672,1.56229 4.00911,1.986805 5.92387,1.078193 z M 160.31991,67.870415 c -0.11298,-0.320833 -0.40827,-1.089152 -0.6562,-1.707374 -0.5643,-1.407086 -0.57565,-1.346199 0.21255,-1.14008 0.4821,0.126073 7.08475,-2.156321 7.92437,-2.739288 0.34318,-0.238279 -1.09296,-2.603961 -1.67285,-2.755607 -0.68563,-0.179294 -0.68803,-0.195894 -0.0637,-0.440224 0.35685,-0.139647 0.81547,-0.264446 1.01915,-0.277332 0.32309,-0.02044 3.29518,6.987484 3.29602,7.771721 1.7e-4,0.162332 -0.30896,0.409559 -0.68697,0.549393 -0.60049,0.222134 -0.67106,0.14276 -0.55876,-0.628482 0.0707,-0.4855 -0.0255,-1.286388 -0.21366,-1.779752 l -0.34219,-0.897026 -3.93239,1.595424 c -3.41719,1.386404 -3.92198,1.689526 -3.85298,2.313692 0.0956,0.864946 -0.18692,0.945648 -0.47241,0.134935 z M 22.046259,62.791244 c -1.84614,-1.214961 -2.59783,-3.493394 -1.82401,-5.528692 0.41467,-1.090679 0.20019,-1.397651 -0.54464,-0.779495 -0.3582,0.29728 -0.22275,-0.170952 0.38657,-1.336237 0.72201,-1.380818 0.98571,-1.657843 1.14523,-1.203084 0.18147,0.517333 0.27972,0.480173 0.79015,-0.298843 1.38624,-2.115662 3.97896,-2.740232 6.198,-1.49306 2.0943,1.177064 2.8994,3.476725 2.02361,5.780215 -0.34502,0.90747 -0.0712,1.118008 0.59175,0.455034 0.61571,-0.615705 0.48015,-0.119355 -0.44004,1.611293 -0.87915,1.65345 -1.40521,2.344441 -1.06937,1.404629 0.36913,-1.032964 -0.10097,-0.851153 -1.55258,0.600452 -1.3165,1.316507 -1.60039,1.45009 -3.07748,1.448096 -1.05723,-0.0014 -1.97747,-0.232716 -2.62719,-0.660308 z m 5.29155,-1.697521 c 0.48481,-0.381347 0.79343,-0.835804 0.68583,-1.009904 -0.1076,-0.174101 -1.67013,-1.056484 -3.4723,-1.960851 -3.51969,-1.766263 -3.67175,-1.752964 -3.67175,0.321115 0,2.591954 4.29262,4.353104 6.45822,2.64964 z m 2.14133,-4.016844 c 0.26407,-3.073664 -4.41338,-5.116868 -6.53759,-2.85575 l -0.71133,0.757175 3.24135,1.730205 c 1.78274,0.951613 3.39135,1.684493 3.57469,1.628622 0.18333,-0.05587 0.37813,-0.622984 0.43288,-1.260252 z M 157.3571,60.537082 c -0.19224,-0.320834 -0.70928,-1.183334 -1.14898,-1.916667 -0.56181,-0.936993 -0.63099,-1.197853 -0.23272,-0.877564 0.49547,0.398465 0.92075,0.252802 3.38247,-1.158544 1.54866,-0.887872 2.75249,-1.677568 2.67517,-1.75488 -0.20251,-0.202518 -7.15756,-1.369205 -8.18328,-1.37272 -0.60637,-0.0021 -0.99986,-0.275671 -1.32264,-0.919626 -0.25271,-0.504166 -0.51035,-1.017363 -0.57254,-1.140437 -0.0622,-0.123075 0.18459,-0.145934 0.54838,-0.0508 0.43291,0.113208 1.88567,-0.558092 4.20464,-1.942895 3.10152,-1.852118 3.52521,-2.212508 3.39898,-2.891142 -0.18153,-0.975929 0.10431,-0.658589 1.29884,1.441941 0.61715,1.085238 0.74883,1.507019 0.37747,1.209037 -0.50141,-0.402332 -0.96302,-0.22194 -3.82015,1.49288 l -3.24982,1.95051 5.26265,0.840453 c 3.5972,0.574479 5.36252,0.998686 5.57823,1.340454 0.46685,0.739677 0.39519,0.955736 -0.26015,0.784359 -0.33721,-0.08818 -2.07061,0.740913 -4.08334,1.953084 -2.90554,1.749867 -3.48395,2.232349 -3.41799,2.8511 0.0957,0.897547 0.0222,0.924823 -0.43522,0.161457 z M 33.556789,52.03962 c -0.006,-0.329679 -1.46623,-1.740504 -3.37735,-3.263027 -2.69441,-2.146546 -3.45999,-2.604907 -3.83333,-2.295057 -0.89629,0.743848 -0.43171,-0.205414 0.7477,-1.527788 0.65405,-0.733333 1.10572,-1.077585 1.0037,-0.765003 -0.13659,0.418511 0.56269,1.152545 2.65267,2.784519 1.56098,1.218904 2.88848,2.163156 2.95,2.098337 0.10607,-0.111752 -1.66768,-8.723464 -1.95089,-9.471747 -0.0737,-0.194642 0.16448,-0.719642 0.52921,-1.166667 0.43952,-0.538689 0.60015,-0.616436 0.47634,-0.230553 -0.14055,0.438039 0.64806,1.242863 3.18452,3.25 1.85423,1.467279 3.54433,2.667781 3.75578,2.667781 0.21145,0 0.59114,-0.1875 0.84376,-0.416667 0.25262,-0.229167 -0.0441,0.258333 -0.65931,1.083333 -1.57447,2.111253 -1.74026,2.268814 -1.61119,1.531221 0.0785,-0.448771 -0.57427,-1.203334 -2.22214,-2.568562 -1.28334,-1.063214 -2.44209,-1.939764 -2.575,-1.947888 -0.26998,-0.0165 -0.16307,0.641453 0.90995,5.599719 l 0.74614,3.447823 -0.78002,0.88551 c -0.6294,0.714533 -0.78204,0.773369 -0.79054,0.304716 z M 148.57489,47.57383 c -2.45383,-2.787695 -2.59263,-5.556092 -0.38904,-7.759678 2.70343,-2.703428 6.08995,-1.978215 8.7385,1.871323 l 1.06304,1.545072 -0.95754,0.763516 c -1.09576,0.873723 -1.36579,0.818566 -0.83628,-0.170821 0.78755,-1.471558 -1.38834,-4.369494 -3.2808,-4.369494 -2.36252,0 -4.69985,2.422465 -4.69985,4.871029 0,1.945023 1.63096,3.925468 3.06001,3.715727 1.08594,-0.159382 1.17511,-0.0054 0.35666,0.615895 -0.99142,0.752592 -1.64241,0.521885 -3.0547,-1.082569 z M 42.340469,41.577013 c 0.16137,-0.508454 -0.43694,-1.394987 -2.5711,-3.80963 -1.6627,-1.881216 -3.01292,-3.126915 -3.35697,-3.097111 -0.53376,0.04624 -0.53164,0.0013 0.0292,-0.619309 0.82918,-0.91758 2.76629,-2.272646 2.14957,-1.503689 -0.40297,0.50244 -0.17916,0.892543 1.95273,3.403644 1.32432,1.55989 2.48671,2.836163 2.58309,2.836163 0.0964,0 0.10465,-2.321878 0.0184,-5.15973 -0.15561,-5.119603 -0.15056,-5.165616 0.64917,-5.916667 l 0.806,-0.756937 -0.20749,0.833334 c -0.17434,0.700232 0.22631,1.330529 2.50846,3.946237 2.11418,2.423178 2.86258,3.074559 3.37771,2.939849 0.64502,-0.168677 0.64623,-0.15587 0.0477,0.506406 -0.33771,0.373703 -1.02543,0.972712 -1.52827,1.331132 -0.7294,0.519908 -0.87355,0.545578 -0.71291,0.126959 0.19308,-0.503146 -0.59039,-1.610877 -3.19493,-4.51725 l -1.0455,-1.166666 0.12884,4.833333 0.12883,4.833333 -0.98643,0.80963 c -0.89664,0.735933 -0.96728,0.749311 -0.7761,0.146969 z m 97.539121,-3.177276 c -0.825,-0.747406 -1.24311,-1.272868 -0.92912,-1.167693 0.81071,0.27156 6.39325,-5.908793 6.15616,-6.815407 -0.13696,-0.523737 0.0631,-0.455765 1.11824,0.379905 3.01366,2.386865 3.65681,4.01875 2.16987,5.505691 -1.02749,1.027485 -2.78566,1.093442 -3.89489,0.146112 l -0.78693,-0.672069 0.90301,0.38602 c 1.85593,0.79337 3.83237,-1.624272 2.7181,-3.324862 l -0.56327,-0.859661 -2.13337,2.321321 c -3.46721,3.772668 -3.90441,4.4097 -3.42382,4.988773 0.69936,0.842671 0.23596,0.534155 -1.33398,-0.88813 z M 134.02757,33.9015 c -1.45639,-1.029543 -2.40271,-1.787781 -2.10292,-1.684972 0.67217,0.230514 1.60875,-0.755076 3.94955,-4.156199 1.22,-1.772617 1.70656,-2.771975 1.58183,-3.248945 -0.20806,-0.795603 -0.23266,-0.807207 2.68536,1.266793 1.72927,1.229091 2.00004,1.55298 1.72614,2.064768 -0.49204,0.919376 -1.10256,1.197048 -0.84454,0.384106 0.16217,-0.510964 -0.038,-0.856887 -0.81682,-1.411441 -0.5674,-0.404024 -1.06656,-0.680726 -1.10926,-0.614893 -0.0427,0.06583 -0.50409,0.69846 -1.02534,1.405837 -1.02827,1.395465 -0.9926,1.487675 0.90737,2.345844 l 0.93268,0.42127 -0.67159,0.806707 c -0.53435,0.641847 -0.67386,0.69244 -0.68269,0.247566 -0.006,-0.307527 -0.41022,-0.8731 -0.89805,-1.256829 l -0.88697,-0.697689 -1.09162,1.535379 c -0.60039,0.844459 -1.02155,1.717969 -0.93591,1.941135 0.0856,0.223166 0.60796,0.67291 1.16071,0.99943 0.79731,0.470979 1.10516,0.510566 1.48955,0.191546 0.70402,-0.584285 0.59565,0.142287 -0.11748,0.787663 -0.5644,0.51077 -0.76752,0.427829 -3.25,-1.327076 z M 51.626539,31.122215 c -2.38916,-1.456692 -3.17247,-4.77715 -1.65733,-7.025468 0.79705,-1.182748 3.16324,-2.803807 4.58985,-3.144479 0.73216,-0.174838 0.92755,-0.03133 1.45052,1.065343 0.59603,1.249891 0.59549,1.259356 -0.0391,0.685102 -1.7407,-1.575313 -5.42427,0.517028 -5.42427,3.081094 0,1.17561 1.30242,3.327519 2.43011,4.015104 2.42579,1.479083 5.86925,0.245334 5.93041,-2.124795 l 0.0272,-1.053702 0.48953,1.121951 c 0.44603,1.022279 0.43621,1.180948 -0.11053,1.786029 -1.00563,1.112944 -3.63101,2.258786 -5.1723,2.257441 -0.83602,-7.3e-4 -1.87799,-0.275765 -2.51413,-0.66362 z m -13.87298,-0.602719 c -0.091,-0.147172 0.57519,-0.905494 1.48032,-1.68516 1.63987,-1.412548 2.15706,-1.270855 1.07767,0.295243 -0.98578,1.430288 -2.14407,2.059656 -2.55799,1.389917 z m 88.256281,-1.434723 c -2.26623,-1.195263 -2.77353,-1.590084 -1.94862,-1.516581 0.42747,0.03809 1.12755,-0.97516 2.58686,-3.744025 1.67539,-3.178875 1.93801,-3.896741 1.61486,-4.414195 -0.54138,-0.86689 3.62827,1.454974 4.23736,2.359565 0.659,0.978732 0.2128,2.312904 -0.93493,2.795488 -0.89964,0.378274 -0.92994,0.452708 -0.50019,1.229025 0.83952,1.516555 0.35481,3.306463 -1.07137,3.956274 -1.23569,0.563018 -1.84877,0.460598 -3.98397,-0.665551 z m 3.66763,-1.372431 c 0.39151,-1.093012 0.0207,-2.487193 -0.77484,-2.912927 -0.54816,-0.293369 -0.75427,-0.128185 -1.49606,1.199029 -1.05657,1.890415 -1.08174,2.583274 -0.11032,3.037289 0.93634,0.437615 1.95279,-0.127292 2.38122,-1.323391 z m 0.73555,-3.513699 c 0.20172,-0.134693 0.54988,-0.592454 0.77369,-1.017248 0.33457,-0.635023 0.3112,-0.91844 -0.13141,-1.593955 -0.65146,-0.994253 -0.97545,-0.833007 -1.87699,0.934141 -0.56082,1.099309 -0.60724,1.409497 -0.24523,1.638946 0.54845,0.347627 0.99902,0.359232 1.47994,0.03812 z m -68.195801,3.41659 c 0.34608,-0.416994 0.14036,-1.178716 -1.17848,-4.363543 -1.07606,-2.598565 -1.81156,-3.937459 -2.2526,-4.10061 -0.54773,-0.202619 -0.4146,-0.334003 0.81377,-0.803124 1.56785,-0.598768 2.40009,-0.732635 1.66739,-0.268204 -0.3608,0.228702 -0.30312,0.613702 0.30306,2.022812 l 0.74868,1.74035 0.78829,-1.937588 c 0.43357,-1.065673 0.74719,-2.224868 0.69695,-2.575989 -0.0681,-0.475581 0.28916,-0.800842 1.40062,-1.275313 l 1.49198,-0.63691 -0.71785,0.768316 c -0.98272,1.051799 -2.61148,4.890644 -2.23333,5.263765 0.56139,0.553928 5.85508,2.67108 6.74676,2.698292 l 0.88713,0.02707 -1,0.457892 c -1.54318,0.70661 -2.48654,0.5833 -5.09274,-0.665688 -1.44102,-0.690592 -2.39936,-0.991631 -2.38759,-0.75 0.0108,0.222008 0.3543,1.07865 0.76328,1.90365 0.54019,1.089673 0.92234,1.480106 1.397,1.427275 0.35936,-0.04 -0.0966,0.288296 -1.01328,0.729543 -1.96485,0.945801 -2.40024,1.02626 -1.82904,0.338001 z m 57.583031,-1.464241 c -0.86863,-0.317972 -1.69363,-0.70398 -1.83333,-0.857796 -0.1397,-0.153816 -0.0835,-0.182268 0.1249,-0.06323 0.20839,0.119041 0.52984,0.03059 0.71433,-0.196558 0.48696,-0.599547 2.19841,-5.565804 1.98992,-5.774296 -0.176,-0.175996 -3.48407,1.748879 -6.16318,3.586176 -1.34035,0.919202 -1.4867,0.948025 -2.83333,0.558022 -1.07578,-0.311561 -1.24365,-0.440991 -0.69254,-0.533965 0.60607,-0.102246 0.95298,-0.796959 2.07932,-4.164011 1.25666,-3.75661 1.31372,-4.083471 0.80999,-4.640088 -0.49659,-0.548725 -0.37082,-0.541021 1.50401,0.09212 1.12525,0.380004 2.04591,0.768194 2.04591,0.862644 0,0.09445 -0.22271,0.08627 -0.49491,-0.01819 -0.29676,-0.113877 -0.64534,0.09114 -0.8706,0.512056 -0.45747,0.854786 -2.33291,6.352554 -2.20923,6.476238 0.0486,0.04862 2.01013,-1.102172 4.3589,-2.557317 4.21271,-2.60992 4.95191,-2.908464 5.82735,-2.353528 0.34192,0.216737 0.2937,0.321511 -0.20841,0.452816 -0.49115,0.128436 -0.95312,1.070713 -1.86152,3.796871 -1.37461,4.125318 -1.43595,4.625703 -0.62491,5.098089 0.86163,0.501853 0.13105,0.380554 -1.66267,-0.276056 z M 71.845079,23.81546 c 0.39251,-0.24853 0.34971,-0.809594 -0.27298,-3.578229 -1.04813,-4.660266 -1.3303,-5.445843 -1.96836,-5.479956 -0.30662,-0.01639 0.19252,-0.238343 1.10918,-0.493221 0.91667,-0.254878 1.81667,-0.403307 2,-0.329843 0.18334,0.07346 0.14584,0.145413 -0.0833,0.159887 -0.58583,0.037 -0.48501,1.389124 0.35739,4.792995 l 0.72594,2.933346 2.31683,-4.600013 c 1.27426,-2.530007 2.32457,-4.62532 2.33402,-4.656251 0.01,-0.03093 0.46688,-0.144329 1.0165,-0.251994 0.54963,-0.107666 0.81182,-0.107358 0.58265,6.83e-4 -0.59208,0.279137 -0.47464,1.482337 0.53328,5.463518 0.78953,3.118572 0.97193,3.51041 1.71672,3.687973 0.73402,0.174994 0.67443,0.225907 -0.5,0.427187 -0.73333,0.125684 -1.70833,0.316608 -2.16666,0.424276 -0.61122,0.143583 -0.70771,0.10717 -0.362,-0.136617 0.40373,-0.284697 0.38619,-0.731149 -0.12224,-3.112248 -0.32647,-1.52893 -0.70134,-2.979525 -0.83304,-3.223546 -0.15203,-0.281695 -1.00441,1.077023 -2.33474,3.721666 -2.06203,4.099233 -2.45785,4.547406 -4.01465,4.545685 -0.41845,-4.62e-4 -0.42408,-0.04863 -0.0345,-0.295298 z m 33.867841,-1.695046 c -0.73333,-0.131301 -1.08688,-0.260016 -0.78566,-0.286032 0.67358,-0.05818 0.82896,-0.443873 1.12125,-2.783245 l 0.22995,-1.840458 -2.43824,-0.361887 c -1.34103,-0.199038 -2.48043,-0.319697 -2.53199,-0.268132 -0.0516,0.05157 -0.19199,1.033609 -0.31205,2.182319 -0.16834,1.610562 -0.1113,2.156308 0.24922,2.384562 0.32864,0.208068 0.17046,0.285798 -0.53248,0.261664 -1.199881,-0.0412 -3.235111,-0.526596 -2.443151,-0.582686 0.62197,-0.04405 0.71508,-0.381424 1.43688,-5.206105 0.486891,-3.254462 0.482681,-3.346693 -0.178,-3.897952 -0.65468,-0.546254 -0.63559,-0.558044 0.587121,-0.362476 1.67094,0.267261 3.06974,0.69576 2.38882,0.731777 -0.53763,0.02844 -0.95834,1.290268 -0.95834,2.874351 0,0.640487 0.22649,0.797218 1.41667,0.980357 0.77917,0.119893 1.90417,0.299772 2.5,0.399729 0.89852,0.150737 1.08396,0.0759 1.087,-0.438689 0.002,-0.341237 0.0963,-1.180641 0.20946,-1.865343 0.18075,-1.093497 0.10936,-1.284574 -0.587,-1.570998 -0.62208,-0.255866 -0.46979,-0.286867 0.70721,-0.143963 2.08485,0.253131 2.58342,0.432628 2.0748,0.746974 -0.22358,0.138181 -0.62913,1.817612 -0.90122,3.732069 -0.64978,4.571998 -0.6405,5.230373 0.0764,5.417722 0.93254,0.2437 -0.92074,0.164284 -2.41667,-0.103558 z M 90.057829,20.817682 c 1.70098,-0.725694 1.69861,-1.142676 -0.0279,-4.91665 -0.88855,-1.942314 -1.82159,-3.737536 -2.07344,-3.989382 -0.38832,-0.388315 -0.31498,-0.458595 0.48257,-0.462455 0.51726,-0.0025 1.31548,-0.103515 1.77381,-0.224471 0.72332,-0.190885 0.77744,-0.1517 0.40995,0.296808 -0.35075,0.428067 -0.23636,0.951961 0.66666,3.05332 0.59953,1.395125 1.17523,2.53861 1.27933,2.541077 0.18819,0.0045 2.31857,-4.956993 2.31342,-5.387741 -0.002,-0.124057 -0.26519,-0.294157 -0.58602,-0.377999 -0.32084,-0.08384 0.23283,-0.169841 1.23037,-0.191108 1.6372,-0.0349 1.75121,0.007 1.17151,0.430924 -0.35321,0.258275 -1.61938,2.470775 -2.81371,4.916667 -2.13988,4.382298 -2.1885,4.448192 -3.33817,4.523722 -0.91909,0.06038 -1.02274,0.01524 -0.48843,-0.212712 z"
       id="path1" />
  </g>
</svg>
