<?xml version="1.0" encoding="UTF-8" standalone="no"?>
<!-- Created with Inkscape (http://www.inkscape.org/) -->

<svg
   version="1.1"
   id="svg1"
   width="104.39907"
   height="164"
   viewBox="0 0 104.39907 164"
   xmlns="http://www.w3.org/2000/svg"
   xmlns:svg="http://www.w3.org/2000/svg">
  <defs
     id="defs1">
    <clipPath
       clipPathUnits="userSpaceOnUse"
       id="clipPath2">
      <path
         d="M 0,123 H 78.299 V 0 H 0 Z"
         transform="translate(-34.790201,-3.9132976)"
         id="path2" />
    </clipPath>
    <clipPath
       clipPathUnits="userSpaceOnUse"
       id="clipPath4">
      <path
         d="M 0,123 H 78.299 V 0 H 0 Z"
         transform="translate(-38.081301,-119.2998)"
         id="path4" />
    </clipPath>
    <clipPath
       clipPathUnits="userSpaceOnUse"
       id="clipPath6">
      <path
         d="M 0,123 H 78.299 V 0 H 0 Z"
         transform="translate(-44.702401,-112.3696)"
         id="path6" />
    </clipPath>
    <clipPath
       clipPathUnits="userSpaceOnUse"
       id="clipPath8">
      <path
         d="M 0,123 H 78.299 V 0 H 0 Z"
         transform="translate(-32.181101,-53.606002)"
         id="path8" />
    </clipPath>
    <clipPath
       clipPathUnits="userSpaceOnUse"
       id="clipPath10">
      <path
         d="M 0,123 H 78.299 V 0 H 0 Z"
         transform="translate(-30.553201,-86.114202)"
         id="path10" />
    </clipPath>
    <clipPath
       clipPathUnits="userSpaceOnUse"
       id="clipPath12">
      <path
         d="M 0,123 H 78.299 V 0 H 0 Z"
         transform="translate(-51.057001,-31.942703)"
         id="path12" />
    </clipPath>
    <clipPath
       clipPathUnits="userSpaceOnUse"
       id="clipPath14">
      <path
         d="M 0,123 H 78.299 V 0 H 0 Z"
         transform="translate(-41.313501,-12.076298)"
         id="path14" />
    </clipPath>
    <clipPath
       clipPathUnits="userSpaceOnUse"
       id="clipPath16">
      <path
         d="M 0,123 H 78.299 V 0 H 0 Z"
         transform="translate(-40.164101,-77.153002)"
         id="path16" />
    </clipPath>
    <clipPath
       clipPathUnits="userSpaceOnUse"
       id="clipPath18">
      <path
         d="M 0,123 H 78.299 V 0 H 0 Z"
         transform="translate(-24.3115,-79.519102)"
         id="path18" />
    </clipPath>
    <clipPath
       clipPathUnits="userSpaceOnUse"
       id="clipPath20">
      <path
         d="M 0,123 H 78.299 V 0 H 0 Z"
         transform="translate(-30.419901,-28.974301)"
         id="path20" />
    </clipPath>
    <clipPath
       clipPathUnits="userSpaceOnUse"
       id="clipPath22">
      <path
         d="M 0,123 H 78.299 V 0 H 0 Z"
         transform="translate(-51.312601,-68.876402)"
         id="path22" />
    </clipPath>
    <clipPath
       clipPathUnits="userSpaceOnUse"
       id="clipPath24">
      <path
         d="M 0,123 H 78.299 V 0 H 0 Z"
         transform="translate(-46.038701,-22.699598)"
         id="path24" />
    </clipPath>
    <clipPath
       clipPathUnits="userSpaceOnUse"
       id="clipPath26">
      <path
         d="M 0,123 H 78.299 V 0 H 0 Z"
         transform="translate(-41.467401,-32.687798)"
         id="path26" />
    </clipPath>
    <clipPath
       clipPathUnits="userSpaceOnUse"
       id="clipPath28">
      <path
         d="M 0,123 H 78.299 V 0 H 0 Z"
         transform="translate(-59.453101,-86.800302)"
         id="path28" />
    </clipPath>
    <clipPath
       clipPathUnits="userSpaceOnUse"
       id="clipPath30">
      <path
         d="M 0,123 H 78.299 V 0 H 0 Z"
         transform="translate(-37.982301,-68.134102)"
         id="path30" />
    </clipPath>
    <clipPath
       clipPathUnits="userSpaceOnUse"
       id="clipPath32">
      <path
         d="M 0,123 H 78.299 V 0 H 0 Z"
         transform="translate(-42.685601,-32.727803)"
         id="path32" />
    </clipPath>
    <clipPath
       clipPathUnits="userSpaceOnUse"
       id="clipPath34">
      <path
         d="M 0,123 H 78.299 V 0 H 0 Z"
         transform="translate(-35.286101,-76.581102)"
         id="path34" />
    </clipPath>
    <clipPath
       clipPathUnits="userSpaceOnUse"
       id="clipPath36">
      <path
         d="M 0,123 H 78.299 V 0 H 0 Z"
         transform="translate(-43.278101,-51.824302)"
         id="path36" />
    </clipPath>
    <clipPath
       clipPathUnits="userSpaceOnUse"
       id="clipPath38">
      <path
         d="M 0,123 H 78.299 V 0 H 0 Z"
         transform="translate(-37.250701,-42.820404)"
         id="path38" />
    </clipPath>
    <clipPath
       clipPathUnits="userSpaceOnUse"
       id="clipPath40">
      <path
         d="M 0,123 H 78.299 V 0 H 0 Z"
         transform="translate(-45.844901,-37.616701)"
         id="path40" />
    </clipPath>
    <clipPath
       clipPathUnits="userSpaceOnUse"
       id="clipPath42">
      <path
         d="M 0,123 H 78.299 V 0 H 0 Z"
         transform="translate(-48.446101,-23.204198)"
         id="path42" />
    </clipPath>
    <clipPath
       clipPathUnits="userSpaceOnUse"
       id="clipPath44">
      <path
         d="M 0,123 H 78.299 V 0 H 0 Z"
         transform="translate(-35.491001,-46.760701)"
         id="path44" />
    </clipPath>
    <clipPath
       clipPathUnits="userSpaceOnUse"
       id="clipPath46">
      <path
         d="M 0,123 H 78.299 V 0 H 0 Z"
         transform="translate(-20.0185,-64.511302)"
         id="path46" />
    </clipPath>
    <clipPath
       clipPathUnits="userSpaceOnUse"
       id="clipPath48">
      <path
         d="M 0,123 H 78.299 V 0 H 0 Z"
         transform="translate(-33.945001,-48.662101)"
         id="path48" />
    </clipPath>
    <clipPath
       clipPathUnits="userSpaceOnUse"
       id="clipPath50">
      <path
         d="M 0,123 H 78.299 V 0 H 0 Z"
         transform="translate(-49.750801,-24.513098)"
         id="path50" />
    </clipPath>
    <clipPath
       clipPathUnits="userSpaceOnUse"
       id="clipPath52">
      <path
         d="M 0,123 H 78.299 V 0 H 0 Z"
         transform="translate(-58.389001,-64.457602)"
         id="path52" />
    </clipPath>
    <clipPath
       clipPathUnits="userSpaceOnUse"
       id="clipPath54">
      <path
         d="M 0,123 H 78.299 V 0 H 0 Z"
         transform="translate(-43.645101,-71.439102)"
         id="path54" />
    </clipPath>
    <clipPath
       clipPathUnits="userSpaceOnUse"
       id="clipPath56">
      <path
         d="M 0,123 H 78.299 V 0 H 0 Z"
         transform="translate(-29.326201,-72.121102)"
         id="path56" />
    </clipPath>
    <clipPath
       clipPathUnits="userSpaceOnUse"
       id="clipPath58">
      <path
         d="M 0,123 H 78.299 V 0 H 0 Z"
         transform="translate(-33.093301,-50.512702)"
         id="path58" />
    </clipPath>
    <clipPath
       clipPathUnits="userSpaceOnUse"
       id="clipPath60">
      <path
         d="M 0,123 H 78.299 V 0 H 0 Z"
         transform="translate(-61.674902,-76.110902)"
         id="path60" />
    </clipPath>
    <clipPath
       clipPathUnits="userSpaceOnUse"
       id="clipPath62">
      <path
         d="M 0,123 H 78.299 V 0 H 0 Z"
         transform="translate(-36.021001,-52.341202)"
         id="path62" />
    </clipPath>
    <clipPath
       clipPathUnits="userSpaceOnUse"
       id="clipPath64">
      <path
         d="M 0,123 H 78.299 V 0 H 0 Z"
         transform="translate(-28.7233,-69.346601)"
         id="path64" />
    </clipPath>
    <clipPath
       clipPathUnits="userSpaceOnUse"
       id="clipPath66">
      <path
         d="M 0,123 H 78.299 V 0 H 0 Z"
         transform="translate(-46.645101,-68.645402)"
         id="path66" />
    </clipPath>
    <clipPath
       clipPathUnits="userSpaceOnUse"
       id="clipPath68">
      <path
         d="M 0,123 H 78.299 V 0 H 0 Z"
         transform="translate(-17.7954,-75.815202)"
         id="path68" />
    </clipPath>
    <clipPath
       clipPathUnits="userSpaceOnUse"
       id="clipPath70">
      <path
         d="M 0,123 H 78.299 V 0 H 0 Z"
         transform="translate(-34.925301,-55.562501)"
         id="path70" />
    </clipPath>
    <clipPath
       clipPathUnits="userSpaceOnUse"
       id="clipPath72">
      <path
         d="M 0,123 H 78.299 V 0 H 0 Z"
         transform="translate(-37.677701,-54.448901)"
         id="path72" />
    </clipPath>
    <clipPath
       clipPathUnits="userSpaceOnUse"
       id="clipPath74">
      <path
         d="M 0,123 H 78.299 V 0 H 0 Z"
         transform="translate(-40.151701,-55.317802)"
         id="path74" />
    </clipPath>
  </defs>
  <g
     id="layer-MC0">
    <path
       id="path1"
       d="m 0,0 c -2.537,0.015 -4.337,0.752 -5.503,2.253 -0.85,1.094 -1.464,2.195 -1.826,3.273 -0.109,0.328 -0.223,0.653 -0.336,0.979 -0.361,1.037 -0.735,2.108 -0.966,3.219 -0.205,0.981 -0.341,2.038 -0.441,3.428 -0.085,1.188 -0.339,2.358 -0.585,3.489 l -0.186,0.866 c -0.291,1.401 -0.646,2.815 -0.989,4.182 -0.245,0.978 -0.49,1.956 -0.716,2.938 -0.342,1.492 -0.622,3.018 -0.894,4.493 -0.184,1.005 -0.369,2.009 -0.574,3.009 -0.147,0.725 -0.274,1.453 -0.401,2.181 -0.124,0.704 -0.247,1.409 -0.388,2.109 -0.288,1.428 -0.345,2.901 -0.399,4.326 l -0.009,0.226 c -0.031,0.807 -0.074,1.613 -0.117,2.421 -0.048,0.93 -0.098,1.86 -0.129,2.792 -0.023,0.652 -0.437,0.892 -1.067,1.182 -1.314,0.605 -2.526,1.405 -3.558,2.107 -0.774,0.525 -1.453,1.202 -2.108,1.857 -0.199,0.197 -0.397,0.395 -0.597,0.588 -1.641,1.586 -2.952,3.467 -4.22,5.287 l -0.118,0.17 c -0.814,1.167 -1.526,2.401 -2.214,3.595 l -0.542,0.935 c -0.829,1.422 -1.34,2.99 -1.834,4.506 l -0.293,0.893 c -0.873,2.615 -1.418,5.073 -1.667,7.516 -0.206,2.023 -0.256,3.825 -0.152,5.508 l 0.016,0.258 c 0.106,1.72 0.216,3.499 0.576,5.195 0.353,1.668 0.848,3.392 1.474,5.123 0.61,1.689 1.401,3.285 2.165,4.758 1.206,2.328 2.685,4.542 4.395,6.581 2.101,2.503 4.569,4.509 6.923,6.304 1.577,1.204 3.414,2.041 5.003,2.701 l 0.381,0.159 c 1.127,0.47 2.294,0.956 3.466,1.37 1.734,0.613 3.497,1.166 5.202,1.701 0.54,0.17 1.103,0.2 1.647,0.228 0.216,0.012 0.432,0.023 0.645,0.043 0.491,0.046 0.979,0.113 1.467,0.179 0.894,0.121 1.818,0.246 2.759,0.246 0.191,0 0.384,-0.005 0.578,-0.016 0.786,-0.046 1.58,-0.054 2.376,-0.063 0.652,-0.007 1.305,-0.013 1.954,-0.04 2.496,-0.104 5.082,-0.57 7.905,-1.422 1.999,-0.603 3.945,-1.22 5.791,-2.131 1.777,-0.877 3.386,-2 4.859,-3.084 1.867,-1.371 3.304,-2.667 4.522,-4.078 0.307,-0.356 0.622,-0.706 0.938,-1.056 0.729,-0.809 1.484,-1.646 2.125,-2.553 1.882,-2.664 3.269,-5.212 4.242,-7.79 l 0.084,-0.222 c 0.645,-1.71 1.312,-3.478 1.771,-5.297 0.693,-2.747 1.351,-5.658 1.118,-8.404 0.101,-2.873 -0.295,-5.683 -1.247,-8.817 -0.163,-0.537 -0.334,-1.074 -0.505,-1.61 -0.309,-0.969 -0.629,-1.972 -0.893,-2.97 -0.081,-0.308 -0.239,-0.545 -0.392,-0.775 -0.111,-0.166 -0.216,-0.323 -0.285,-0.498 -0.837,-2.121 -1.76,-3.89 -2.821,-5.408 -1.317,-1.88 -2.633,-3.698 -4.242,-5.263 -2.373,-2.31 -4.63,-4.093 -6.899,-5.452 -0.833,-0.5 -1.623,-0.975 -2.361,-1.501 -0.305,-0.218 -0.406,-0.453 -0.387,-0.898 l 0.03,-0.651 c 0.04,-0.815 0.081,-1.657 0.032,-2.487 -0.13,-2.148 -0.322,-4.271 -0.572,-6.308 -0.183,-1.498 -0.391,-2.993 -0.599,-4.487 l -0.29,-2.107 C 19.904,28.17 19.606,26.489 19.21,24.648 19.111,24.185 19.017,23.721 18.923,23.257 18.659,21.953 18.386,20.605 17.986,19.305 17.316,17.129 16.816,14.75 16.363,11.59 16.013,9.15 15.157,6.658 13.669,3.747 13.213,2.855 12.78,2.221 12.266,1.688 11.461,0.853 10.427,0.429 9.193,0.429 8.354,0.429 7.438,0.635 6.547,1.025 5.114,1.649 4.254,2.482 3.839,3.646 3.799,3.758 3.746,3.758 3.726,3.758 3.625,3.742 3.6,3.705 3.538,3.535 3.209,2.638 2.703,1.855 2.25,1.208 1.708,0.429 0.915,0 0.02,0 Z"
       style="fill:#231f20;fill-opacity:1;fill-rule:evenodd;stroke:none"
       transform="matrix(1.3333333,0,0,-1.3333333,46.386933,158.78227)"
       clip-path="url(#clipPath2)" />
    <path
       id="path3"
       d="m 0,0 v 0 c -0.954,0 -1.885,-0.126 -2.786,-0.248 -0.486,-0.065 -0.972,-0.131 -1.461,-0.177 -0.21,-0.02 -0.423,-0.031 -0.636,-0.043 -0.557,-0.029 -1.133,-0.06 -1.7,-0.237 -1.701,-0.534 -3.459,-1.086 -5.208,-1.703 -1.178,-0.417 -2.347,-0.904 -3.478,-1.375 l -0.381,-0.159 c -1.601,-0.665 -3.453,-1.509 -5.051,-2.728 -2.362,-1.803 -4.841,-3.818 -6.955,-6.337 -1.72,-2.05 -3.208,-4.277 -4.422,-6.62 -0.769,-1.482 -1.564,-3.088 -2.176,-4.783 -0.629,-1.741 -1.128,-3.474 -1.482,-5.152 -0.363,-1.711 -0.474,-3.499 -0.58,-5.228 l -0.016,-0.256 c -0.105,-1.696 -0.055,-3.509 0.152,-5.542 0.247,-2.425 0.812,-4.969 1.677,-7.561 0.099,-0.296 0.196,-0.593 0.292,-0.889 0.497,-1.528 1.012,-3.108 1.853,-4.55 0.181,-0.309 0.359,-0.619 0.538,-0.929 0.692,-1.199 1.407,-2.44 2.227,-3.616 l 0.121,-0.175 c 1.273,-1.826 2.589,-3.714 4.244,-5.313 0.2,-0.193 0.397,-0.39 0.595,-0.587 0.663,-0.662 1.348,-1.345 2.138,-1.882 1.04,-0.707 2.26,-1.512 3.589,-2.124 0.628,-0.289 0.925,-0.482 0.943,-0.996 0.032,-0.931 0.081,-1.861 0.13,-2.79 0.043,-0.808 0.085,-1.616 0.117,-2.424 l 0.008,-0.224 c 0.055,-1.434 0.112,-2.916 0.403,-4.362 0.142,-0.698 0.264,-1.399 0.387,-2.101 0.127,-0.731 0.255,-1.462 0.403,-2.189 0.205,-0.999 0.389,-2.003 0.573,-3.007 0.272,-1.477 0.552,-3.004 0.896,-4.5 0.226,-0.987 0.473,-1.969 0.719,-2.951 0.342,-1.362 0.695,-2.771 0.985,-4.165 0.06,-0.29 0.123,-0.58 0.186,-0.87 0.245,-1.123 0.497,-2.285 0.581,-3.456 0.101,-1.401 0.238,-2.467 0.444,-3.457 0.235,-1.125 0.611,-2.204 0.975,-3.248 0.113,-0.324 0.226,-0.648 0.335,-0.974 0.368,-1.101 0.994,-2.223 1.859,-3.336 1.209,-1.556 3.063,-2.32 5.67,-2.336 0.987,0 1.841,0.462 2.426,1.3 0.447,0.64 0.947,1.411 1.284,2.301 0.466,-1.132 1.345,-1.944 2.753,-2.557 0.918,-0.402 1.863,-0.614 2.731,-0.614 1.276,0 2.391,0.458 3.226,1.324 0.677,0.701 1.125,1.495 1.439,2.109 1.499,2.933 2.361,5.447 2.715,7.911 0.452,3.148 0.95,5.517 1.616,7.682 0.403,1.311 0.677,2.663 0.942,3.971 0.094,0.463 0.188,0.927 0.287,1.39 0.397,1.848 0.696,3.534 0.915,5.154 0.094,0.694 0.19,1.389 0.287,2.085 0.205,1.477 0.417,3.005 0.602,4.512 0.25,2.038 0.443,4.164 0.573,6.32 0.05,0.84 0.008,1.687 -0.032,2.506 -0.01,0.218 -0.021,0.436 -0.03,0.654 -0.016,0.375 0.054,0.542 0.298,0.716 0.732,0.522 1.519,0.995 2.281,1.452 l 0.067,0.04 c 2.281,1.366 4.551,3.16 6.938,5.482 1.623,1.58 2.944,3.405 4.267,5.294 1.07,1.53 2,3.313 2.845,5.451 0.061,0.155 0.159,0.303 0.264,0.459 0.155,0.232 0.33,0.496 0.421,0.838 0.262,0.993 0.581,1.993 0.89,2.961 0.171,0.537 0.342,1.074 0.505,1.612 0.956,3.148 1.356,5.972 1.258,8.886 0.229,2.772 -0.431,5.694 -1.126,8.449 -0.463,1.834 -1.134,3.613 -1.783,5.332 l -0.079,0.209 c -0.98,2.596 -2.375,5.16 -4.267,7.839 -0.649,0.917 -1.408,1.758 -2.142,2.572 -0.314,0.349 -0.628,0.698 -0.934,1.053 -1.23,1.424 -2.678,2.73 -4.557,4.11 -1.482,1.09 -3.101,2.22 -4.892,3.104 -1.858,0.917 -3.814,1.537 -5.823,2.143 -2.84,0.858 -5.443,1.325 -7.957,1.431 -0.65,0.027 -1.304,0.034 -1.958,0.04 C 2.177,-0.07 1.369,-0.062 0.589,-0.017 0.391,-0.005 0.195,0 0,0 m 0,-0.425 c 0.187,0 0.375,-0.005 0.564,-0.016 1.431,-0.083 2.891,-0.043 4.334,-0.103 2.68,-0.112 5.291,-0.64 7.852,-1.413 1.961,-0.592 3.914,-1.208 5.758,-2.118 1.72,-0.848 3.284,-1.929 4.828,-3.064 1.639,-1.204 3.154,-2.503 4.487,-4.046 1.027,-1.19 2.144,-2.312 3.05,-3.593 1.704,-2.411 3.171,-4.97 4.217,-7.743 0.682,-1.808 1.372,-3.612 1.848,-5.495 0.717,-2.843 1.336,-5.686 1.112,-8.335 0.111,-3.207 -0.397,-6.002 -1.239,-8.772 -0.463,-1.531 -0.991,-3.043 -1.399,-4.588 -0.13,-0.49 -0.493,-0.802 -0.67,-1.25 -0.744,-1.883 -1.64,-3.708 -2.798,-5.363 -1.284,-1.834 -2.597,-3.659 -4.215,-5.233 -2.101,-2.044 -4.342,-3.914 -6.86,-5.422 -0.806,-0.484 -1.609,-0.964 -2.376,-1.511 -0.403,-0.288 -0.495,-0.625 -0.476,-1.079 0.043,-1.038 0.124,-2.082 0.062,-3.117 -0.126,-2.102 -0.313,-4.202 -0.57,-6.294 -0.27,-2.201 -0.592,-4.397 -0.889,-6.593 -0.231,-1.71 -0.544,-3.423 -0.908,-5.121 -0.384,-1.782 -0.684,-3.58 -1.22,-5.325 -0.779,-2.533 -1.255,-5.13 -1.631,-7.747 -0.397,-2.766 -1.413,-5.312 -2.672,-7.777 -0.373,-0.728 -0.791,-1.411 -1.367,-2.008 -0.827,-0.857 -1.861,-1.194 -2.92,-1.194 -0.871,0 -1.758,0.227 -2.561,0.578 -1.155,0.504 -2.142,1.234 -2.592,2.497 -0.053,0.146 -0.156,0.254 -0.314,0.254 -0.024,0 -0.049,-0.003 -0.075,-0.008 -0.192,-0.037 -0.252,-0.188 -0.313,-0.354 -0.302,-0.825 -0.759,-1.559 -1.262,-2.278 -0.513,-0.736 -1.241,-1.118 -2.057,-1.118 H -3.29 c -2.049,0.012 -4.026,0.484 -5.337,2.171 -0.737,0.948 -1.396,2.03 -1.791,3.21 -0.462,1.382 -0.996,2.734 -1.296,4.174 -0.235,1.127 -0.356,2.275 -0.437,3.4 -0.107,1.501 -0.474,2.935 -0.775,4.383 -0.497,2.389 -1.159,4.743 -1.706,7.124 -0.57,2.487 -0.957,5.005 -1.466,7.497 -0.291,1.426 -0.502,2.865 -0.79,4.29 -0.3,1.485 -0.345,3.004 -0.404,4.518 -0.067,1.737 -0.187,3.472 -0.246,5.211 -0.028,0.812 -0.603,1.098 -1.19,1.369 -1.249,0.574 -2.404,1.325 -3.528,2.089 -0.987,0.67 -1.81,1.587 -2.677,2.423 -1.676,1.619 -2.982,3.518 -4.311,5.425 -1.017,1.459 -1.858,2.996 -2.747,4.516 -0.977,1.675 -1.498,3.534 -2.109,5.359 -0.813,2.438 -1.398,4.929 -1.657,7.47 -0.184,1.808 -0.264,3.638 -0.15,5.473 0.112,1.82 0.213,3.658 0.587,5.423 0.362,1.715 0.863,3.426 1.466,5.095 0.591,1.637 1.361,3.203 2.153,4.732 1.206,2.326 2.664,4.507 4.371,6.541 2.026,2.415 4.417,4.388 6.887,6.273 1.492,1.138 3.215,1.95 4.957,2.673 1.271,0.529 2.54,1.067 3.836,1.526 1.717,0.606 3.457,1.153 5.194,1.698 0.726,0.227 1.504,0.192 2.249,0.262 1.4,0.132 2.776,0.424 4.207,0.424"
       style="fill:#ffffff;fill-opacity:1;fill-rule:nonzero;stroke:none"
       transform="matrix(1.3333333,0,0,-1.3333333,50.775067,4.9336)"
       clip-path="url(#clipPath4)" />
    <path
       id="path5"
       d="M 0,0 C 0.543,0.736 0.736,1.563 0.657,2.435 0.623,2.822 0.562,3.206 0.934,3.41 1.295,3.61 1.647,3.36 1.956,3.179 2.326,2.961 2.332,2.62 2.238,2.219 2.065,1.481 1.945,0.729 1.816,-0.019 1.767,-0.298 1.716,-0.602 2.104,-0.701 2.476,-0.795 2.596,-0.512 2.714,-0.256 2.817,-0.028 2.952,0.196 2.945,0.459 2.927,1.195 3.267,1.802 3.584,2.436 3.759,2.784 3.98,2.874 4.307,2.871 4.842,2.865 5.281,2.615 5.68,2.29 6.005,2.026 5.915,1.705 5.772,1.373 5.45,0.628 5.299,-0.179 4.929,-0.911 4.824,-1.118 4.628,-1.479 5.022,-1.637 5.328,-1.76 5.55,-1.57 5.71,-1.301 6.109,-0.621 6.524,0.046 6.756,0.81 7.041,1.749 7.295,1.964 7.822,1.765 8.837,1.383 8.989,1.038 8.547,0.038 8.242,-0.653 7.905,-1.331 7.597,-2.022 7.515,-2.21 7.317,-2.431 7.573,-2.628 c 0.276,-0.214 0.543,-0.087 0.761,0.108 0.278,0.247 0.486,0.572 0.568,0.922 0.15,0.646 0.604,1.145 0.782,1.771 0.109,0.385 0.407,0.42 0.741,0.362 1.122,-0.191 1.487,-1.026 0.827,-1.939 -0.45,-0.62 -0.74,-1.325 -1.11,-1.986 -0.115,-0.208 -0.214,-0.44 0.039,-0.593 0.213,-0.128 0.368,0.056 0.489,0.211 0.501,0.642 0.993,1.29 1.488,1.936 0.101,0.134 0.184,0.29 0.308,0.399 0.312,0.273 0.679,0.277 1.023,0.087 0.347,-0.193 0.237,-0.518 0.178,-0.828 -0.084,-0.44 -0.376,-0.75 -0.643,-1.072 -0.396,-0.479 -0.771,-0.968 -1.052,-1.524 -0.064,-0.127 -0.143,-0.263 -0.044,-0.391 0.118,-0.154 0.3,-0.156 0.463,-0.093 0.265,0.102 0.49,0.258 0.67,0.489 0.43,0.552 0.947,1.028 1.291,1.658 0.315,0.578 0.72,0.706 1.083,0.464 0.541,-0.358 0.681,-0.94 0.301,-1.455 -0.347,-0.474 -0.739,-0.918 -1.134,-1.355 -0.214,-0.238 -0.352,-0.504 -0.444,-0.801 -0.051,-0.165 -0.095,-0.339 0.089,-0.45 0.175,-0.104 0.308,-0.018 0.446,0.109 0.476,0.437 0.958,0.867 1.443,1.293 0.871,0.763 1.263,0.697 1.995,-0.03 1.262,-1.252 1.293,-1.276 0.231,-2.669 -0.337,-0.441 -0.787,-0.816 -0.917,-1.396 -0.042,-0.193 -0.125,-0.405 0.105,-0.523 0.221,-0.114 0.377,0.033 0.491,0.205 0.415,0.629 1.076,0.972 1.633,1.438 0.424,0.355 0.7,0.205 1.017,-0.077 0.042,-0.037 0.069,-0.09 0.106,-0.131 1.342,-1.469 1.419,-1.788 -0.192,-3.159 -0.343,-0.29 -0.673,-0.599 -0.978,-0.926 -0.143,-0.153 -0.321,-0.367 -0.125,-0.594 0.151,-0.178 0.378,-0.118 0.55,-0.032 0.496,0.253 0.987,0.517 1.464,0.803 1.101,0.66 1.904,0.338 2.248,-0.903 0.087,-0.315 0.029,-0.542 -0.249,-0.723 -0.559,-0.365 -1.113,-0.739 -1.667,-1.113 -0.234,-0.156 -0.468,-0.312 -0.692,-0.481 -0.227,-0.17 -0.344,-0.429 -0.192,-0.663 0.186,-0.288 0.455,-0.132 0.66,0.024 0.609,0.463 1.317,0.752 1.975,1.126 0.646,0.367 0.84,0.279 1.207,-0.371 0.631,-1.118 0.514,-1.57 -0.579,-2.305 -0.529,-0.354 -1.146,-0.594 -1.521,-1.154 -0.093,-0.141 -0.242,-0.269 -0.148,-0.45 0.104,-0.197 0.303,-0.117 0.454,-0.087 0.731,0.142 1.393,0.469 1.961,0.93 0.478,0.387 0.737,0.214 1.005,-0.212 0.926,-1.474 0.651,-2.218 -1.042,-2.649 -0.482,-0.123 -0.879,-0.367 -1.297,-0.593 -0.176,-0.095 -0.353,-0.209 -0.307,-0.449 0.05,-0.26 0.274,-0.237 0.466,-0.255 0.287,-0.027 0.563,0 0.827,0.121 0.621,0.283 1.32,0.248 1.956,0.487 0.398,0.151 0.696,-0.03 0.827,-0.473 0.182,-0.621 0.17,-1.273 0.327,-1.901 0.09,-0.365 -0.26,-0.6 -0.604,-0.707 -0.774,-0.245 -1.552,-0.473 -2.358,-0.611 -0.302,-0.05 -0.805,-0.055 -0.786,-0.471 0.022,-0.509 0.535,-0.391 0.874,-0.393 0.591,-0.003 1.169,0.134 1.752,0.222 1.012,0.153 1.283,-0.084 1.299,-1.09 0.007,-0.507 -0.005,-1.013 -0.034,-1.519 -0.046,-0.832 -0.116,-0.897 -0.933,-0.973 -0.838,-0.08 -1.675,-0.179 -2.493,-0.385 -0.183,-0.046 -0.439,-0.058 -0.429,-0.319 0.011,-0.263 0.261,-0.251 0.451,-0.271 0.896,-0.095 1.795,-0.07 2.694,-0.076 0.759,-0.004 0.881,-0.117 0.872,-0.88 -0.006,-0.332 -0.043,-0.678 -0.138,-0.995 -0.145,-0.488 -0.42,-0.795 -1.024,-0.804 -0.838,-0.013 -1.677,-0.147 -2.513,-0.24 -0.263,-0.028 -0.645,0.038 -0.626,-0.378 0.017,-0.36 0.383,-0.385 0.648,-0.412 0.724,-0.076 1.456,-0.048 2.176,-0.227 0.904,-0.224 1.018,-0.362 0.799,-1.261 -0.289,-1.185 -0.972,-1.509 -2.41,-1.075 -0.406,0.124 -0.819,0.19 -1.224,0.305 -0.427,0.123 -0.533,-0.162 -0.647,-0.467 -0.146,-0.391 0.162,-0.386 0.386,-0.49 0.755,-0.343 1.563,-0.402 2.369,-0.459 0.513,-0.035 0.748,-0.22 0.715,-0.789 -0.052,-0.943 -0.095,-1.087 -0.749,-1.136 -0.614,-0.046 -1.229,-0.104 -1.826,0.167 -0.456,0.206 -0.92,-0.059 -1.382,-0.073 -0.111,-0.004 -0.206,-0.105 -0.218,-0.225 -0.018,-0.168 0.107,-0.242 0.24,-0.303 0.617,-0.278 1.258,-0.498 1.926,-0.599 0.927,-0.141 1.097,-0.248 1.029,-0.768 -0.12,-0.907 -0.668,-1.446 -1.422,-1.317 -0.855,0.149 -1.738,0.158 -2.557,0.499 -0.123,0.051 -0.278,0.06 -0.413,0.042 -0.217,-0.028 -0.353,-0.189 -0.389,-0.392 -0.034,-0.195 0.113,-0.336 0.279,-0.369 0.746,-0.143 1.357,-0.65 2.155,-0.687 0.892,-0.041 1.097,-0.44 0.698,-1.224 -0.202,-0.396 -0.493,-0.75 -0.764,-1.108 -0.239,-0.316 -0.56,-0.195 -0.85,-0.093 -0.694,0.243 -1.314,0.623 -1.903,1.06 -0.211,0.158 -0.486,0.46 -0.714,0.155 -0.226,-0.3 -0.073,-0.652 0.261,-0.854 0.601,-0.361 1.219,-0.697 1.816,-1.068 0.467,-0.29 0.621,-0.639 0.308,-1.197 -0.437,-0.783 -0.546,-0.873 -1.361,-0.512 -0.6,0.267 -1.118,0.642 -1.518,1.173 -0.15,0.198 -0.348,0.462 -0.62,0.261 -0.296,-0.22 -0.144,-0.506 0.047,-0.737 0.435,-0.524 0.959,-0.936 1.572,-1.244 0.711,-0.357 0.733,-0.465 0.337,-1.151 -0.056,-0.097 -0.108,-0.196 -0.163,-0.294 -0.359,-0.639 -0.442,-0.653 -1.106,-0.274 -0.566,0.323 -0.958,0.868 -1.538,1.173 -0.213,0.113 -0.403,0.407 -0.656,0.16 -0.286,-0.282 -0.1,-0.56 0.106,-0.817 0.287,-0.359 0.685,-0.583 1.027,-0.874 0.379,-0.324 0.623,-0.625 0.206,-1.121 -0.381,-0.454 -0.65,-0.43 -1.115,-0.066 -0.371,0.29 -0.726,0.606 -1.111,0.884 -0.184,0.132 -0.359,0.3 -0.579,0.047 -0.166,-0.19 -0.211,-0.377 -0.077,-0.612 0.244,-0.428 0.644,-0.702 0.971,-1.049 0.465,-0.491 0.466,-0.645 -0.038,-1.076 -0.128,-0.11 -0.27,-0.204 -0.41,-0.298 -0.722,-0.486 -0.741,-0.481 -1.237,0.254 -0.142,0.21 -0.285,0.419 -0.427,0.629 -0.123,0.183 -0.242,0.448 -0.511,0.266 -0.22,-0.149 -0.297,-0.433 -0.175,-0.677 0.15,-0.297 0.341,-0.583 0.561,-0.832 0.345,-0.389 0.249,-0.746 -0.075,-1.033 -0.604,-0.535 -1.367,-0.761 -2.137,-0.923 -0.467,-0.099 -0.543,0.239 -0.572,0.62 -0.078,0.998 0.165,1.946 0.36,2.911 0.197,0.973 0.652,1.614 1.635,1.891 0.661,0.187 1.083,0.67 1.291,1.337 0.88,2.844 2.068,5.573 3.144,8.345 0.374,0.962 1.081,1.79 1.192,2.86 0.116,1.102 0.497,2.22 -0.172,3.286 -0.145,0.233 -0.059,0.489 -0.016,0.741 0.439,2.55 0.542,5.148 1.001,7.689 0.344,1.907 0.341,3.775 0.192,5.689 -0.09,1.188 0.134,2.401 -0.044,3.602 -0.405,2.733 -1.412,5.175 -3.342,7.214 -1.123,1.186 -2.352,2.256 -3.658,3.208 -1.264,0.921 -2.687,1.619 -4.128,2.256 -1.883,0.833 -3.804,1.537 -5.808,2.016 -3.491,0.837 -7.005,1.289 -10.613,1.003 -1.938,-0.153 -3.87,-0.286 -5.761,-0.737 -2.097,-0.501 -4.175,-1.07 -6.133,-2.019 -1.281,-0.621 -2.637,-1.065 -3.848,-1.855 -1.844,-1.204 -3.563,-2.523 -4.851,-4.335 -0.554,-0.781 -1.158,-1.521 -1.726,-2.288 -0.571,-0.773 -0.769,-1.738 -1.043,-2.641 -0.708,-2.336 -0.871,-4.775 -0.728,-7.173 0.163,-2.704 0.613,-5.397 1.728,-7.935 0.418,-0.95 0.811,-1.907 1.303,-2.824 0.353,-0.657 0.411,-1.284 -0.123,-1.954 -0.459,-0.579 -0.588,-1.372 -0.568,-2.085 0.067,-2.257 0.576,-4.471 2.048,-6.193 1.084,-1.265 1.462,-2.593 1.499,-4.142 0.03,-1.242 0.607,-2.275 1.326,-3.224 0.367,-0.484 0.54,-0.969 0.466,-1.554 -0.121,-0.947 -0.077,-1.912 -0.298,-2.85 -0.136,-0.579 -0.399,-0.739 -0.936,-0.5 -0.635,0.283 -1.094,0.778 -1.478,1.346 -0.175,0.257 -0.034,0.495 0.078,0.713 0.233,0.45 0.493,0.884 0.737,1.327 0.095,0.175 0.217,0.388 -0.008,0.523 -0.217,0.13 -0.44,0.026 -0.584,-0.171 -0.216,-0.296 -0.385,-0.627 -0.624,-0.899 -0.267,-0.305 -0.528,-0.705 -1.052,-0.4 -0.499,0.289 -0.724,0.796 -0.599,1.326 0.122,0.515 0.496,0.876 0.74,1.315 0.067,0.121 0.189,0.213 0.255,0.334 0.112,0.208 0.398,0.441 0.134,0.661 -0.2,0.165 -0.408,-0.088 -0.567,-0.229 -0.438,-0.394 -0.885,-0.78 -1.283,-1.212 -0.387,-0.42 -0.715,-0.328 -1.086,-0.004 -1.337,1.174 -1.355,1.404 -0.028,2.611 0.487,0.441 0.784,1.026 1.247,1.479 0.136,0.135 0.292,0.317 0.129,0.517 -0.187,0.231 -0.399,0.119 -0.594,-0.019 -0.714,-0.504 -1.347,-1.105 -1.991,-1.691 -0.658,-0.599 -0.763,-0.584 -1.252,0.182 -0.706,1.106 -0.678,1.333 0.351,2.169 0.63,0.512 1.37,0.884 1.872,1.554 0.134,0.178 0.365,0.302 0.128,0.555 -0.203,0.217 -0.369,0.102 -0.591,-0.005 -0.926,-0.447 -1.66,-1.151 -2.463,-1.766 -0.623,-0.475 -0.696,-0.452 -1.065,0.219 -0.095,0.172 -0.191,0.345 -0.279,0.521 -0.315,0.627 -0.285,0.797 0.305,1.175 0.733,0.471 1.485,0.909 2.228,1.363 0.12,0.074 0.226,0.17 0.349,0.238 0.315,0.173 0.496,0.42 0.274,0.752 -0.213,0.316 -0.524,0.128 -0.757,0.007 -0.647,-0.334 -1.28,-0.696 -1.907,-1.066 -0.172,-0.102 -0.339,-0.201 -0.532,-0.243 -0.352,-0.077 -0.721,-0.523 -1.058,-0.054 -0.349,0.485 -0.569,1.037 -0.408,1.665 0.061,0.234 0.281,0.257 0.449,0.343 0.907,0.453 1.897,0.684 2.84,1.046 0.131,0.051 0.274,0.073 0.399,0.134 0.147,0.073 0.326,0.153 0.277,0.362 -0.044,0.187 -0.223,0.253 -0.388,0.283 -0.262,0.05 -0.492,-0.097 -0.725,-0.183 -0.953,-0.346 -1.936,-0.581 -2.912,-0.842 -0.417,-0.11 -0.625,0.019 -0.803,0.378 -0.505,1.017 -0.385,1.335 0.595,1.852 0.929,0.489 1.936,0.743 2.92,1.066 0.303,0.101 0.551,0.16 0.457,0.542 -0.098,0.396 -0.343,0.446 -0.709,0.322 -0.902,-0.308 -1.805,-0.616 -2.74,-0.82 -1.012,-0.22 -1.318,-0.03 -1.546,0.968 -0.043,0.191 -0.067,0.388 -0.101,0.581 -0.148,0.834 0.14,1.212 0.972,1.113 0.906,-0.106 1.795,-0.032 2.691,0.04 0.139,0.012 0.281,0.023 0.416,0.058 0.203,0.051 0.366,0.152 0.366,0.397 -0.002,0.3 -0.208,0.377 -0.452,0.382 -0.613,0.018 -1.226,0.035 -1.84,0.032 -0.561,-0.003 -1.125,-0.004 -1.684,-0.056 -0.486,-0.047 -0.751,0.156 -0.859,0.602 -0.067,0.272 -0.133,0.547 -0.155,0.826 -0.053,0.687 0.067,0.755 0.774,0.898 1.066,0.217 2.131,-0.022 3.191,0.078 0.255,0.024 0.656,-0.098 0.665,0.312 0.01,0.374 -0.354,0.487 -0.667,0.51 -1.063,0.081 -2.128,0.169 -3.193,0.187 -0.52,0.01 -0.865,0.103 -0.975,0.667 -0.167,0.848 -0.011,1.321 0.589,1.569 0.561,0.232 1.157,0.177 1.743,0.141 0.617,-0.038 1.233,-0.093 1.849,-0.154 0.247,-0.024 0.473,-0.008 0.53,0.274 0.068,0.329 -0.156,0.458 -0.435,0.492 -0.975,0.125 -1.948,0.26 -2.925,0.354 -1.039,0.101 -1.041,0.082 -1.126,1.165 -0.009,0.112 -0.039,0.223 -0.036,0.336 0.022,0.771 0.295,0.916 1.062,0.761 1.041,-0.207 2.124,-0.189 3.122,-0.637 0.355,-0.16 0.447,0.111 0.408,0.407 -0.05,0.368 -0.323,0.523 -0.651,0.558 -1.08,0.112 -1.978,0.785 -3.035,0.962 -0.12,0.021 -0.222,0.084 -0.262,0.19 -0.191,0.5 0.008,0.954 0.256,1.358 0.236,0.385 0.586,0.179 0.899,0.043 0.8,-0.348 1.554,-0.8 2.397,-1.044 0.245,-0.071 0.581,-0.339 0.728,0.055 0.164,0.44 -0.283,0.48 -0.55,0.564 -0.704,0.223 -1.343,0.553 -1.97,0.94 -0.508,0.317 -0.743,0.842 -1.084,1.262 -0.298,0.369 0.088,0.911 0.315,1.312 0.203,0.358 0.599,0.276 0.907,0.114 0.496,-0.261 0.999,-0.529 1.437,-0.873 0.273,-0.216 0.577,-0.339 0.865,-0.507 0.241,-0.142 0.47,-0.186 0.645,0.114 0.163,0.279 0.057,0.489 -0.164,0.657 -0.604,0.459 -1.16,0.985 -1.829,1.354 -0.221,0.123 -0.448,0.238 -0.655,0.381 -0.646,0.443 -0.729,1.316 -0.191,1.882 0.235,0.248 0.481,0.31 0.833,0.205 0.682,-0.199 1.247,-0.647 1.924,-0.852 0.133,-0.041 0.254,-0.127 0.388,-0.165 0.27,-0.077 0.572,-0.19 0.737,0.155 0.158,0.33 -0.147,0.472 -0.345,0.579 -0.715,0.385 -1.442,0.753 -2.183,1.086 -0.334,0.151 -0.602,0.283 -0.58,0.712 0.022,0.415 0.247,0.678 0.585,0.862 0.357,0.194 0.579,-0.053 0.804,-0.269 0.465,-0.447 0.904,-0.924 1.45,-1.282 0.207,-0.136 0.423,-0.394 0.661,-0.158 0.272,0.274 0.137,0.616 -0.112,0.821 -0.439,0.359 -0.796,0.788 -1.173,1.203 -0.188,0.206 -0.348,0.444 -0.551,0.635 -0.461,0.433 -0.342,0.838 0.019,1.247 0.419,0.475 0.757,0.11 1.088,-0.121 0.438,-0.304 0.852,-0.642 1.283,-0.955 0.136,-0.097 0.287,-0.178 0.443,-0.239 0.21,-0.083 0.46,-0.176 0.614,0.057 0.164,0.248 -0.044,0.421 -0.22,0.561 -0.569,0.454 -1.149,0.892 -1.663,1.414 -0.157,0.159 -0.338,0.29 -0.441,0.499 -0.232,0.469 -0.09,0.904 0.204,1.258 0.295,0.357 0.674,0.122 1.009,-0.003 0.271,-0.102 0.447,-0.327 0.65,-0.523 0.444,-0.427 0.855,-0.903 1.431,-1.165 0.194,-0.088 0.41,-0.245 0.611,-0.006 0.203,0.243 0.115,0.495 -0.057,0.69 -0.222,0.251 -0.483,0.469 -0.738,0.688 -0.469,0.403 -0.941,0.801 -1.286,1.322 -0.342,0.516 -0.14,1.048 0.581,1.603 0.462,0.356 0.792,0.109 1.082,-0.234 0.566,-0.672 1.217,-1.247 1.925,-1.761 0.155,-0.112 0.33,-0.292 0.51,-0.085 0.13,0.15 -0.015,0.313 -0.095,0.459 -0.429,0.788 -1.136,1.375 -1.518,2.208 -0.328,0.715 -0.254,1.268 0.402,1.639 0.375,0.212 0.701,0.24 1.036,-0.156 0.598,-0.706 1.259,-1.359 1.892,-2.036 0.16,-0.171 0.339,-0.35 0.572,-0.166 0.268,0.209 0.038,0.407 -0.083,0.576 -0.427,0.596 -0.805,1.22 -1.132,1.876 -0.1,0.2 -0.197,0.405 -0.271,0.616 -0.098,0.274 -0.141,0.552 0.127,0.771 0.244,0.199 0.471,0.073 0.706,-0.032 0.873,-0.387 1.472,-1.101 2.111,-1.766 0.076,-0.081 0.124,-0.187 0.192,-0.277 0.135,-0.18 0.33,-0.258 0.518,-0.144 0.212,0.129 0.134,0.364 0.056,0.534 -0.213,0.46 -0.537,0.851 -0.855,1.242 -0.212,0.261 -0.467,0.488 -0.679,0.749 -0.343,0.422 -0.319,0.872 0.047,1.201 0.389,0.35 0.748,0.285 1.111,-0.062 0.588,-0.563 1.2,-1.101 1.676,-1.77 0.13,-0.183 0.262,-0.365 0.412,-0.533 0.178,-0.199 0.415,-0.362 0.664,-0.18 0.304,0.221 0.166,0.5 -0.022,0.733 -0.508,0.631 -0.869,1.365 -1.42,1.968 -0.397,0.433 -0.351,0.88 0.063,1.249 0.431,0.383 0.959,0.389 1.332,-0.079 0.558,-0.701 1.091,-1.428 1.469,-2.251 0.07,-0.152 0.137,-0.315 0.246,-0.436 0.172,-0.19 0.392,-0.186 0.616,-0.068 0.26,0.137 0.27,0.323 0.146,0.563 -0.309,0.598 -0.619,1.196 -0.91,1.804 -0.424,0.885 -0.395,1.127 0.126,1.453 0.622,0.39 1.108,0.292 1.661,-0.375 0.416,-0.501 0.6,-1.133 0.901,-1.7 0.064,-0.122 0.078,-0.276 0.155,-0.389 0.129,-0.187 0.281,-0.369 0.554,-0.215 0.236,0.132 0.414,0.271 0.292,0.598 -0.245,0.658 -0.468,1.323 -0.691,1.988 -0.249,0.74 -0.179,0.999 0.309,1.201 0.606,0.254 1.078,0.086 1.4,-0.519 0.276,-0.517 0.409,-1.105 0.781,-1.575 0.105,-0.133 0.189,-0.281 0.301,-0.407 0.163,-0.184 0.375,-0.262 0.607,-0.152 0.227,0.107 0.183,0.326 0.165,0.52 -0.061,0.629 -0.426,1.153 -0.622,1.737 -0.255,0.759 -0.288,0.748 0.423,1.036 0.052,0.021 0.1,0.053 0.152,0.073 1.583,0.602 2.077,0.351 2.354,-1.282 0.082,-0.481 0.228,-0.923 0.415,-1.363 0.045,-0.106 0.108,-0.211 0.229,-0.217 0.165,-0.008 0.234,0.128 0.297,0.256 0.121,0.244 0.044,0.499 0.027,0.748 -0.036,0.56 -0.1,1.12 -0.137,1.681 -0.026,0.404 0.073,0.714 0.566,0.764 0.475,0.048 0.776,-0.17 0.899,-0.583 C -7.26,2.743 -7.223,2.387 -7.259,2.059 -7.304,1.662 -7.236,1.274 -7.266,0.884 -7.294,0.522 -7.19,0.24 -6.81,0.216 c 0.339,-0.022 0.532,0.29 0.524,0.555 -0.02,0.719 0.362,1.359 0.345,2.073 -0.008,0.343 0.068,0.669 0.413,0.865 0.698,0.394 1.357,0.053 1.46,-0.805 0.081,-0.668 0.102,-1.346 0.136,-2.02 0.015,-0.296 0.018,-0.59 0.411,-0.607 0.393,-0.017 0.52,0.212 0.546,0.583 0.047,0.644 0.082,1.288 0.063,1.933 -0.027,0.914 0.169,1.083 1.064,0.938 0.109,-0.018 0.223,-0.035 0.332,-0.027 1.187,0.081 1.128,0.077 1.226,-1.041 C -0.214,1.786 -0.254,0.895 0,0"
       style="fill:#ffffff;fill-opacity:1;fill-rule:evenodd;stroke:none"
       transform="matrix(1.3333333,0,0,-1.3333333,59.6032,14.173867)"
       clip-path="url(#clipPath6)" />
    <path
       id="path7"
       d="M 0,0 C 0.058,0.652 0.501,1.07 0.468,1.617 0.196,1.761 0.091,1.527 -0.023,1.405 -0.745,0.62 -1.452,-0.18 -2.163,-0.975 -2.294,-1.122 -2.393,-1.339 -2.556,-1.409 -3.434,-1.79 -3.45,-2.594 -3.595,-3.361 c -0.32,-1.68 -0.035,-3.365 -0.075,-5.047 -0.038,-1.628 0.271,-3.237 0.356,-4.861 0.048,-0.912 0.203,-1.838 0.33,-2.753 0.378,-2.736 0.289,-5.461 0.054,-8.212 -0.225,-2.627 -0.352,-5.271 -0.457,-7.91 -0.043,-1.086 -0.59,-1.975 -0.907,-2.953 -0.052,-0.161 -0.187,-0.305 -0.384,-0.267 -0.247,0.05 -0.281,0.262 -0.26,0.462 0.274,2.564 -0.292,5.086 -0.382,7.631 -0.035,1.006 -0.242,2.006 -0.351,3.011 -0.235,2.168 -0.044,4.314 0.31,6.456 0.077,0.465 0.036,0.946 0.059,1.419 0.014,0.28 0.008,0.57 0.078,0.838 0.637,2.452 0.462,4.917 0.291,7.411 -0.214,3.115 -0.831,6.182 -0.982,9.299 -0.022,0.448 0.017,0.899 0.019,1.349 0.001,0.225 0.001,0.504 -0.27,0.55 -0.316,0.053 -0.462,-0.233 -0.487,-0.473 -0.093,-0.916 -0.383,-1.811 -0.21,-2.758 0.132,-0.716 0.119,-1.452 0.047,-2.185 -0.102,-1.043 0.288,-2.032 0.395,-3.057 0.187,-1.789 0.452,-3.58 0.431,-5.372 -0.012,-1.015 -0.103,-2.066 -0.4,-3.082 -0.217,-0.747 -0.246,-1.548 -0.358,-2.325 -0.016,-0.111 -0.01,-0.225 -0.027,-0.337 -0.04,-0.25 -0.073,-0.588 -0.358,-0.597 -0.332,-0.009 -0.293,0.359 -0.313,0.587 -0.084,0.948 -0.134,1.899 -0.21,2.848 -0.19,2.408 -0.298,4.821 -0.322,7.238 -0.032,3.289 -0.153,6.576 -0.617,9.83 -0.392,2.754 -0.944,5.485 -1.426,8.225 -0.262,1.489 -0.521,2.979 -0.789,4.468 -0.244,1.358 -0.58,2.693 -1.105,3.972 -0.371,0.902 -0.775,1.782 0.046,2.663 0.181,0.195 0.047,0.417 -0.054,0.626 -1.92,3.976 -2.219,8.326 -2.824,12.595 -0.237,1.675 -0.059,3.362 0.647,4.956 0.26,0.585 0.29,1.243 0.532,1.854 0.639,1.621 1.377,3.179 2.292,4.668 0.577,0.938 1.486,1.507 2.217,2.268 0.791,0.826 1.761,1.46 2.724,2.093 0.465,0.306 0.994,0.369 1.453,0.613 1.63,0.861 3.383,1.371 5.149,1.824 2.035,0.522 4.089,1.038 6.218,0.856 0.541,-0.047 1.047,0.095 1.585,0.077 1.274,-0.04 2.51,-0.303 3.765,-0.447 0.879,-0.1 1.668,-0.353 2.446,-0.808 0.547,-0.32 1.277,-0.278 1.908,-0.518 1.72,-0.655 3.293,-1.527 4.778,-2.63 1.206,-0.897 2.141,-2.047 3.212,-3.063 0.523,-0.499 0.862,-1.284 1.251,-1.953 0.623,-1.075 0.902,-2.215 1.247,-3.358 0.359,-1.188 0.462,-2.315 -0.659,-3.21 -0.436,-0.348 -0.631,-0.928 -1.146,-1.218 -0.235,-0.133 -0.406,-0.447 -0.726,-0.304 -0.294,0.133 -0.156,0.441 -0.192,0.679 -0.327,2.196 -0.552,4.433 -1.418,6.488 -0.829,1.973 -2.203,3.61 -3.96,4.836 -1.75,1.222 -3.602,2.311 -5.622,3.036 -3.05,1.096 -6.173,1.716 -9.436,1.144 -2.544,-0.445 -4.959,-1.276 -7.119,-2.676 -1.386,-0.898 -2.576,-2.096 -3.464,-3.506 -1.06,-1.686 -2.018,-3.428 -2.619,-5.35 -0.621,-1.984 -0.736,-4.024 -0.811,-6.073 -0.113,-3.06 0.246,-6.108 0.279,-9.167 0.01,-0.955 0.257,-1.893 0.529,-2.807 0.186,-0.625 0.216,-1.212 -0.05,-1.807 -0.332,-0.745 -0.32,-1.556 0.045,-2.208 0.72,-1.287 0.41,-2.491 -0.04,-3.715 -0.258,-0.698 -0.267,-1.375 -0.008,-2.058 0.463,-1.219 0.627,-2.571 1.652,-3.544 0.472,-0.448 0.94,-0.883 1.515,-1.192 0.327,-0.176 0.66,-0.36 0.636,-0.807 -0.059,-1.053 0.356,-2.023 0.68,-2.966 0.467,-1.357 0.981,-2.755 2.191,-3.693 0.49,-0.379 0.712,-0.299 1.116,0.165 0.66,0.759 1.384,1.463 2.033,2.23 0.758,0.897 1.468,1.834 2.194,2.758 0.131,0.168 0.102,0.38 0.082,0.572 C 2.264,8.862 2.163,9.756 2.058,10.65 2.04,10.806 2.07,11.017 1.842,11.046 1.683,11.066 1.607,10.919 1.531,10.802 1.485,10.732 1.43,10.663 1.403,10.585 0.94,9.257 -0.148,8.484 -1.19,7.672 -1.894,7.123 -3.052,7.362 -3.736,8.187 c -1.161,1.405 -1.155,1.397 0.247,2.58 0.378,0.318 1.083,0.574 0.983,1.053 -0.108,0.521 -0.867,0.297 -1.326,0.448 -0.924,0.302 -1.944,0.349 -2.641,1.174 -0.892,1.056 -1.313,2.277 -1.327,3.646 -0.005,0.448 0.229,0.762 0.655,0.874 0.43,0.113 0.631,-0.151 0.829,-0.518 0.269,-0.498 0.402,-1.044 0.684,-1.537 0.938,-1.648 2.627,-2.039 4.096,-0.851 1.4,1.13 2.711,2.356 3.507,4.023 0.073,0.152 0.148,0.304 0.236,0.448 0.116,0.19 0.293,0.253 0.508,0.198 C 2.907,19.677 2.983,19.524 3.007,19.354 3.033,19.158 3.051,18.96 3.038,18.765 2.926,17.098 3.205,15.459 3.423,13.819 3.768,11.228 3.942,8.633 3.812,6.021 3.77,5.182 3.667,5.098 2.834,5.231 2.516,5.281 2.221,5.359 2.023,5.006 1.809,4.624 1.747,4.16 2.087,3.916 3.055,3.221 2.586,2.57 2.138,1.878 2.032,1.715 1.938,1.534 1.879,1.35 1.605,0.476 0.937,0.16 0,0"
       style="fill:#ffffff;fill-opacity:1;fill-rule:evenodd;stroke:none"
       transform="matrix(1.3333333,0,0,-1.3333333,42.908133,92.525333)"
       clip-path="url(#clipPath8)" />
    <path
       id="path9"
       d="m 0,0 c 1.389,-0.496 2.759,-1.06 4.277,-1.049 2.22,0.015 4.448,-0.177 6.656,0.11 1.741,0.227 3.469,0.568 5.046,1.426 0.343,0.184 0.733,0.279 1.093,0.434 0.446,0.194 0.767,0.094 0.953,-0.362 0.271,-0.658 0.206,-1.079 -0.242,-1.337 C 16.489,-1.526 15.11,-2.094 13.686,-2.519 11.69,-3.115 9.638,-3.356 7.549,-3.487 4.974,-3.648 2.445,-3.588 -0.038,-2.871 c -1.485,0.432 -2.856,1.152 -4.225,1.863 -0.238,0.122 -0.346,0.308 -0.404,0.59 -0.791,3.795 -0.93,7.593 0.061,11.362 0.506,1.927 1.162,3.819 2.519,5.37 0.919,1.05 2.067,1.797 3.237,2.514 1.04,0.637 2.197,0.961 3.399,1.123 1.26,0.171 2.452,-0.02 3.581,-0.639 1.013,-0.557 1.973,-1.144 2.699,-2.092 1.275,-1.664 1.523,-3.509 1.115,-5.49 C 11.178,8.01 8.109,6.008 4.967,5.752 3.165,5.604 1.34,6.1 -0.406,6.684 -0.512,6.722 -0.621,6.75 -0.725,6.794 -1.142,6.97 -1.551,7.047 -1.853,6.606 -2.134,6.192 -2.028,5.609 -1.591,5.239 -0.768,4.542 0.175,4.006 1.195,3.704 2.139,3.425 3.05,3.059 3.981,2.752 c 2.206,-0.728 4.46,-0.64 6.666,-0.341 1.99,0.269 3.899,1.015 5.61,2.151 0.779,0.518 0.961,0.424 1.061,-0.534 0.015,-0.139 0.037,-0.278 0.064,-0.415 0.148,-0.781 0,-1.06 -0.781,-1.295 C 16.247,2.212 15.925,2.057 15.596,1.903 12.92,0.643 10.087,-0.039 7.15,-0.226 5.386,-0.338 3.626,-0.041 1.863,0.066 1.251,0.102 0.639,0.245 0,0"
       style="fill:#ffffff;fill-opacity:1;fill-rule:evenodd;stroke:none"
       transform="matrix(1.3333333,0,0,-1.3333333,40.7376,49.181067)"
       clip-path="url(#clipPath10)" />
    <path
       id="path11"
       d="m 0,0 c -0.417,0.175 -0.518,0.467 -0.654,0.738 -1.241,2.441 -1.389,5.067 -1.278,7.727 0.05,1.173 0.226,2.34 0.278,3.513 0.045,0.992 0.36,1.931 0.465,2.913 0.122,1.153 -0.109,2.303 0.062,3.452 0.134,0.916 0.225,1.84 0.316,2.762 0.079,0.829 -0.062,1.027 -0.842,1.306 -0.66,0.237 -1.321,0.475 -1.977,0.724 -0.154,0.058 -0.31,0.14 -0.431,0.25 -0.185,0.166 -0.453,0.36 -0.376,0.614 0.101,0.33 0.443,0.263 0.725,0.252 1.678,-0.065 2.765,0.686 3.321,2.234 0.401,1.111 0.769,2.231 0.948,3.401 0.084,0.537 0.321,0.954 0.745,1.271 1.316,0.987 1.772,2.403 1.949,3.945 0.097,0.836 0.15,1.683 0.083,2.525 -0.098,1.237 0.284,2.39 0.555,3.566 0.113,0.492 0.192,0.994 0.306,1.487 0.166,0.718 0.006,1.359 -0.517,1.861 -0.72,0.69 -0.817,1.566 -0.842,2.477 -0.046,1.742 -0.027,3.461 0.424,5.185 0.24,0.921 0.147,1.949 0.298,2.924 0.059,0.374 0.121,0.748 0.456,0.957 0.642,0.4 1.274,0.811 1.884,1.258 0.246,0.179 0.484,0.114 0.522,-0.261 C 6.441,56.885 6.54,56.688 6.521,56.5 6.359,54.999 6.568,53.487 6.286,51.981 5.904,49.941 5.769,47.869 5.715,45.79 5.664,43.827 5.481,41.87 5.393,39.906 5.311,38.089 5.109,36.274 5.219,34.448 5.262,33.741 5.033,33.131 4.633,32.488 4.075,31.588 3.547,30.654 3.059,29.705 2.957,29.508 2.886,29.279 2.869,29.061 2.7,26.71 2.172,24.384 2.107,22.046 2.057,20.198 1.863,18.39 1.371,16.655 1.03,15.452 0.641,14.247 0.291,13.038 -0.314,10.94 -0.488,8.806 -0.342,6.621 -0.197,4.445 0.115,2.275 0,0"
       style="fill:#ffffff;fill-opacity:1;fill-rule:evenodd;stroke:none"
       transform="matrix(1.3333333,0,0,-1.3333333,68.076,121.40973)"
       clip-path="url(#clipPath12)" />
    <path
       id="path13"
       d="m 0,0 c -0.023,-0.641 0.188,-1.291 -0.078,-1.918 -0.12,-0.279 -0.193,-0.628 -0.586,-0.635 -0.263,-0.004 -0.501,0.103 -0.586,0.392 -0.106,0.357 -0.074,0.631 0.325,0.834 0.409,0.208 0.539,0.58 0.228,0.982 -0.294,0.383 -0.929,0.368 -1.274,-0.003 -0.502,-0.542 -0.513,-1.702 -0.027,-2.264 0.237,-0.274 0.527,-0.493 0.772,-0.766 0.254,-0.287 0.658,-0.265 1.028,-0.139 0.786,0.27 1.265,0.852 1.494,1.607 0.345,1.134 0.461,2.267 0.215,3.481 C 1.039,3.904 0.438,6.222 0.329,8.62 0.308,9.055 0.361,9.426 0.579,9.822 0.821,10.264 1.285,10.6 1.252,11.208 1.244,11.378 1.49,11.735 1.765,11.674 2.146,11.59 1.933,11.242 1.886,11.036 1.698,10.225 1.914,9.427 1.966,8.632 2.09,6.807 2.675,5.051 2.932,3.251 3.217,1.252 3.79,-0.777 3.053,-2.817 2.733,-3.701 2.311,-4.51 1.665,-5.201 1.292,-5.6 0.832,-5.747 0.378,-5.498 c -1.148,0.631 -2.365,1.166 -3.075,2.398 -0.317,0.551 -0.42,1.046 -0.329,1.67 0.457,3.143 0.854,6.293 0.609,9.484 -0.039,0.513 -0.224,0.922 -0.544,1.289 -0.156,0.179 -0.378,0.252 -0.613,0.163 -0.227,-0.087 -0.22,-0.299 -0.235,-0.497 -0.044,-0.594 0.025,-1.185 0.127,-1.762 0.237,-1.349 0.048,-2.69 -0.016,-4.03 -0.07,-1.43 -0.106,-2.858 -0.087,-4.289 0.013,-0.984 -0.215,-1.87 -0.961,-2.604 -0.797,-0.787 -1.879,-0.807 -2.552,0.083 -1.644,2.175 -2.458,4.614 -2.391,7.365 0.047,1.851 -0.05,3.707 0.07,5.558 0.058,0.886 0.038,1.785 0.444,2.631 0.15,0.311 0.098,0.716 0.15,1.078 0.045,0.311 0.215,0.378 0.47,0.198 0.459,-0.325 0.697,-0.748 0.776,-1.33 0.4,-2.964 0.376,-5.92 0.03,-8.885 -0.125,-1.082 -0.275,-2.181 0,-3.267 0.24,-0.947 0.631,-1.804 1.533,-2.312 0.63,-0.354 0.97,-0.25 1.293,0.397 0.394,0.792 0.296,1.642 0.251,2.479 C -4.688,0.637 -4.889,0.826 -5.198,0.898 -5.507,0.969 -5.767,0.865 -5.932,0.609 -6.091,0.363 -6.115,0.08 -5.97,-0.194 c 0.039,-0.071 0.102,-0.133 0.162,-0.192 0.242,-0.235 0.452,-0.581 0.119,-0.773 -0.32,-0.187 -0.545,0.217 -0.674,0.48 -0.279,0.563 -0.413,1.177 -0.281,1.801 0.318,1.509 0.551,3.041 1.24,4.456 0.499,1.023 0.193,2.096 0.023,3.142 -0.071,0.443 -0.167,0.879 -0.205,1.33 -0.074,0.868 -0.093,0.857 0.815,0.73 1.002,-0.14 2.004,-0.33 3.021,-0.114 0.219,0.047 0.443,0.111 0.664,0.114 0.296,0.005 0.473,-0.027 0.469,-0.474 C -0.627,9.163 -0.991,8.061 -0.859,6.9 -0.709,5.591 -0.687,4.276 -0.344,2.986 -0.085,2.018 0.008,1.009 0,0"
       style="fill:#ffffff;fill-opacity:1;fill-rule:evenodd;stroke:none"
       transform="matrix(1.3333333,0,0,-1.3333333,55.084667,147.89827)"
       clip-path="url(#clipPath14)" />
    <path
       id="path15"
       d="M 0,0 C -0.168,1.951 0.829,3.492 2.505,4.019 4.024,4.496 5.556,4.936 7.072,5.42 7.384,5.519 7.645,5.762 7.948,5.902 8.574,6.192 8.909,6.004 8.976,5.311 9.026,4.799 8.961,4.309 8.606,3.885 8.282,3.498 8.066,3.04 7.831,2.593 7.618,2.189 7.795,2.029 8.131,1.903 8.446,1.786 8.759,1.576 9.075,1.573 9.903,1.563 10.143,0.825 10.647,0.418 10.759,0.327 10.792,0.168 10.707,0.034 10.601,-0.129 10.402,-0.126 10.251,-0.1 9.53,0.027 8.789,-0.052 8.078,0.061 6.698,0.28 5.407,-0.056 4.105,-0.393 3.103,-0.654 2.105,-0.936 1.094,-1.156 0.154,-1.36 0.034,-1.235 0.001,-0.258 -0.004,-0.118 0,0.022 0,0"
       style="fill:#ffffff;fill-opacity:1;fill-rule:evenodd;stroke:none"
       transform="matrix(1.3333333,0,0,-1.3333333,53.552133,61.129333)"
       clip-path="url(#clipPath16)" />
    <path
       id="path17"
       d="M 0,0 C -0.336,1.346 0.243,2.091 1.423,2.776 2.36,3.32 3.09,3.018 3.889,2.79 4.753,2.542 5.532,2.069 6.312,1.624 6.56,1.482 6.809,1.345 7.088,1.313 7.726,1.239 7.996,0.818 8.15,0.265 8.462,-0.854 8.209,-1.9 7.75,-2.92 7.635,-3.173 7.445,-3.309 7.146,-3.276 6.895,-3.247 6.641,-3.254 6.403,-3.146 4.679,-2.365 2.873,-2.027 0.985,-2.19 0.398,-2.242 0.154,-1.963 0.108,-1.43 0.067,-0.953 0.036,-0.477 0,0"
       style="fill:#ffffff;fill-opacity:1;fill-rule:evenodd;stroke:none"
       transform="matrix(1.3333333,0,0,-1.3333333,32.415333,57.974533)"
       clip-path="url(#clipPath18)" />
    <path
       id="path19"
       d="M 0,0 C 0.717,-0.317 0.839,-0.936 0.804,-1.603 0.728,-3.059 0.71,-4.518 0.559,-5.972 0.339,-8.084 -0.014,-10.208 0.1,-12.32 c 0.119,-2.211 0.179,-4.493 1.487,-6.469 0.336,-0.508 0.523,-1.116 0.78,-1.678 0.388,-0.843 1.051,-1.357 1.928,-1.617 0.179,-0.052 0.45,-0.051 0.374,-0.33 -0.062,-0.231 -0.322,-0.21 -0.507,-0.188 -1.322,0.158 -2.487,0.662 -3.409,1.644 -1.534,1.633 -2.181,3.62 -2.336,5.818 -0.054,0.774 0.242,1.48 0.294,2.234 0.087,1.25 0.292,2.492 0.399,3.744 0.186,2.152 0.501,4.292 0.643,6.445 0.041,0.622 -0.022,1.273 0.013,1.911 C -0.219,-0.528 -0.204,-0.252 0,0"
       style="fill:#ffffff;fill-opacity:1;fill-rule:evenodd;stroke:none"
       transform="matrix(1.3333333,0,0,-1.3333333,40.559867,125.3676)"
       clip-path="url(#clipPath20)" />
    <path
       id="path21"
       d="m 0,0 c 0.083,-1.257 -0.488,-2.384 -1.306,-3.426 -0.377,-0.48 -0.906,-0.623 -1.673,-0.399 -0.393,0.116 -0.887,0.439 -1.139,-0.022 -0.297,-0.539 0.365,-0.68 0.662,-0.885 0.918,-0.63 0.772,-0.826 0.511,-1.688 -0.181,-0.597 -0.584,-1.012 -1.067,-1.367 -0.427,-0.315 -0.816,-0.228 -1.233,0.063 -0.795,0.553 -1.069,1.402 -1.356,2.249 -0.126,0.37 -0.221,0.752 -0.327,1.129 -0.082,0.29 -0.114,0.565 0.255,0.688 0.449,0.147 0.332,0.437 0.189,0.737 -0.206,0.434 -0.613,0.639 -0.994,0.875 -0.321,0.201 -0.578,0.417 -0.495,0.875 0.117,0.643 0.418,0.87 0.989,0.547 0.686,-0.388 1.475,-0.525 2.129,-0.993 0.454,-0.324 0.988,-0.222 1.426,0.083 0.876,0.607 1.64,1.342 2.28,2.199 0.24,0.324 0.447,0.854 0.915,0.669 C 0.231,1.151 0.055,0.61 0.018,0.198 0.016,0.171 0.014,0.143 0,0"
       style="fill:#ffffff;fill-opacity:1;fill-rule:evenodd;stroke:none"
       transform="matrix(1.3333333,0,0,-1.3333333,68.4168,72.1648)"
       clip-path="url(#clipPath22)" />
    <path
       id="path23"
       d="m 0,0 c -0.26,-2.263 0.391,-4.141 1.378,-5.957 0.628,-1.156 0.543,-2.443 0.416,-3.704 -0.07,-0.697 -0.194,-1.39 -0.317,-2.08 -0.189,-1.057 -0.957,-1.742 -1.635,-2.482 -0.107,-0.116 -0.253,-0.123 -0.38,-0.027 -0.122,0.095 -0.16,0.235 -0.098,0.376 0.497,1.14 0.449,2.375 0.431,3.552 -0.019,1.304 -0.331,2.609 -0.576,3.903 -0.249,1.323 -0.564,2.633 -0.862,3.946 -0.21,0.92 -0.139,1.837 0.006,2.754 0.106,0.666 0.196,1.333 0.143,2.012 -0.046,0.585 0.222,1.095 0.418,1.62 0.056,0.15 0.053,0.374 0.275,0.367 0.22,-0.007 0.318,-0.198 0.406,-0.38 0.33,-0.672 0.346,-1.403 0.387,-2.124 C 0.029,1.133 0,0.484 0,0"
       style="fill:#ffffff;fill-opacity:1;fill-rule:evenodd;stroke:none"
       transform="matrix(1.3333333,0,0,-1.3333333,61.384933,133.73387)"
       clip-path="url(#clipPath24)" />
    <path
       id="path25"
       d="m 0,0 c -0.022,-0.48 -0.007,-1.046 -0.27,-1.567 -0.11,-0.219 -0.163,-0.534 -0.486,-0.501 -0.263,0.026 -0.325,0.297 -0.377,0.512 -0.184,0.759 -0.479,1.497 -0.523,2.285 -0.033,0.601 -0.177,1.164 -0.425,1.706 -0.24,0.528 -0.208,1.1 -0.28,1.655 -0.028,0.22 -0.063,0.513 -0.353,0.487 -0.321,-0.028 -0.2,-0.33 -0.221,-0.54 -0.202,-1.98 0.093,-3.912 0.554,-5.826 0.237,-0.985 -0.272,-1.226 -1.183,-1.135 -0.412,0.041 -0.628,0.273 -0.695,0.711 -0.123,0.808 0.038,1.564 0.307,2.313 0.047,0.131 0.137,0.248 0.174,0.381 0.04,0.142 -0.002,0.285 -0.136,0.369 -0.153,0.096 -0.272,-0.004 -0.365,-0.108 -0.428,-0.475 -0.524,-1.106 -0.756,-1.673 -0.107,-0.258 -0.153,-0.541 -0.261,-0.8 -0.078,-0.184 -0.226,-0.341 -0.462,-0.272 -0.235,0.07 -0.418,0.242 -0.385,0.489 0.041,0.303 0.129,0.608 0.255,0.886 0.461,1.016 0.891,2.048 1.429,3.031 0.395,0.723 0.584,1.517 0.68,2.333 0.026,0.223 0.064,0.447 0.115,0.666 0.1,0.419 0.22,0.855 0.727,0.926 C -2.419,6.401 -2.22,5.978 -1.993,5.62 -1.272,4.482 -0.764,3.242 -0.281,1.992 -0.044,1.383 -0.033,0.729 0,0"
       style="fill:#ffffff;fill-opacity:1;fill-rule:evenodd;stroke:none"
       transform="matrix(1.3333333,0,0,-1.3333333,55.289867,120.41627)"
       clip-path="url(#clipPath26)" />
    <path
       id="path27"
       d="M 0,0 C -0.032,0.969 0.114,1.802 0.214,2.638 0.24,2.861 0.3,3.082 0.38,3.293 0.444,3.466 0.511,3.705 0.766,3.652 0.982,3.606 0.911,3.386 0.935,3.229 1.148,1.783 1.127,0.32 1.233,-1.132 1.397,-3.381 0.988,-5.622 1.148,-7.871 c 0.044,-0.616 0.036,-1.251 0.568,-1.702 0.253,-0.213 0.152,-0.388 -0.045,-0.55 -0.72,-0.586 -1.429,-1.185 -2.17,-1.742 -0.389,-0.293 -0.539,-0.056 -0.56,0.351 -0.057,1.099 0.109,2.184 0.216,3.274 0.235,2.372 0.67,4.722 0.839,7.1 C 0.026,-0.721 0,-0.299 0,0"
       style="fill:#ffffff;fill-opacity:1;fill-rule:evenodd;stroke:none"
       transform="matrix(1.3333333,0,0,-1.3333333,79.2708,48.266267)"
       clip-path="url(#clipPath28)" />
    <path
       id="path29"
       d="M 0,0 C -0.198,-2.544 0.164,-5.04 0.621,-7.53 0.728,-8.106 0.847,-8.688 0.788,-9.286 0.756,-9.612 0.679,-9.902 0.33,-10.019 c -0.363,-0.121 -0.717,-0.134 -1.029,0.142 -0.412,0.366 -0.544,0.814 -0.485,1.362 0.303,2.829 0.286,5.658 -0.091,8.476 C -1.42,1.046 -1.58,2.128 -1.657,3.22 -1.697,3.783 -1.69,4.333 -1.571,4.892 -1.488,5.278 -1.342,5.528 -0.93,5.525 -0.507,5.523 -0.377,5.23 -0.3,4.867 -0.064,3.761 -0.006,2.641 0,1.515 0.002,1.01 0,0.505 0,0"
       style="fill:#ffffff;fill-opacity:1;fill-rule:evenodd;stroke:none"
       transform="matrix(1.3333333,0,0,-1.3333333,50.643067,73.154533)"
       clip-path="url(#clipPath30)" />
    <path
       id="path31"
       d="m 0,0 c -0.011,1.265 -0.217,2.3 -0.653,3.276 -0.194,0.433 -0.385,0.882 -0.657,1.266 -1.449,2.045 -2.152,4.346 -2.392,6.809 -0.033,0.338 -0.205,0.847 0.227,0.963 0.417,0.113 0.548,-0.418 0.703,-0.712 0.674,-1.284 1.349,-2.568 1.728,-3.987 C -0.745,6.5 -0.076,5.538 0.366,4.481 0.752,3.551 1.116,2.625 1.059,1.573 1.023,0.896 0.657,0.517 0,0"
       style="fill:#ffffff;fill-opacity:1;fill-rule:evenodd;stroke:none"
       transform="matrix(1.3333333,0,0,-1.3333333,56.914133,120.36293)"
       clip-path="url(#clipPath32)" />
    <path
       id="path33"
       d="M 0,0 C -0.06,0.982 -0.174,1.947 -0.557,2.868 -0.909,3.712 -0.621,4.174 0.259,4.056 1.245,3.922 2.219,4.092 3.197,4.035 3.769,4.002 3.846,3.872 3.525,3.383 2.87,2.387 2.523,1.35 2.748,0.129 2.832,-0.331 2.979,-0.94 2.453,-1.265 1.845,-1.64 1.143,-1.749 0.426,-1.646 0.112,-1.6 0.025,-1.347 0.006,-1.092 -0.02,-0.73 0,-0.364 0,0"
       style="fill:#ffffff;fill-opacity:1;fill-rule:evenodd;stroke:none"
       transform="matrix(1.3333333,0,0,-1.3333333,47.048133,61.891867)"
       clip-path="url(#clipPath34)" />
    <path
       id="path35"
       d="M 0,0 C 1.114,0.129 1.518,-0.166 1.882,-0.954 2.284,-1.826 2.049,-2.724 2.137,-3.604 2.335,-5.575 2.344,-7.56 2.358,-9.543 2.359,-9.722 2.34,-9.909 2.149,-9.955 1.959,-10.002 1.838,-9.84 1.762,-9.689 1.221,-8.614 0.29,-7.791 -0.15,-6.641 c -0.29,0.757 -0.74,1.447 -1.252,2.086 -0.134,0.165 -0.372,0.392 -0.106,0.562 0.216,0.139 0.382,-0.119 0.528,-0.297 0.445,-0.54 0.904,-1.071 1.359,-1.603 0.133,-0.155 0.292,-0.305 0.504,-0.193 0.239,0.126 0.236,0.394 0.177,0.599 -0.067,0.235 -0.216,0.452 -0.351,0.663 -0.441,0.683 -0.892,1.359 -1.337,2.04 -0.106,0.161 -0.274,0.344 -0.061,0.514 0.208,0.166 0.36,-0.019 0.491,-0.165 0.15,-0.168 0.274,-0.359 0.434,-0.513 C 0.439,-3.143 0.722,-3.4 0.964,-3.232 1.243,-3.04 1.481,-2.708 1.349,-2.29 1.298,-2.131 1.28,-1.923 1.17,-1.826 0.626,-1.345 0.586,-0.579 0,0"
       style="fill:#ffffff;fill-opacity:1;fill-rule:evenodd;stroke:none"
       transform="matrix(1.3333333,0,0,-1.3333333,57.704133,94.900933)"
       clip-path="url(#clipPath36)" />
    <path
       id="path37"
       d="m 0,0 c -0.239,-1.577 -0.139,-3.089 -0.559,-4.52 -0.313,-1.072 -0.73,-2.113 -1.134,-3.156 -0.322,-0.834 -0.696,-1.647 -1.038,-2.473 -0.097,-0.232 -0.166,-0.561 -0.448,-0.528 -0.36,0.041 -0.576,0.364 -0.609,0.713 -0.032,0.361 0.033,0.74 0.205,1.066 0.876,1.66 1.2,3.495 1.692,5.274 0.292,1.056 0.423,2.15 0.496,3.245 0.04,0.599 0.249,1.146 0.431,1.704 0.13,0.396 0.354,0.361 0.515,0.072 C -0.193,0.935 0.014,0.44 0,0"
       style="fill:#ffffff;fill-opacity:1;fill-rule:evenodd;stroke:none"
       transform="matrix(1.3333333,0,0,-1.3333333,49.6676,106.90613)"
       clip-path="url(#clipPath38)" />
    <path
       id="path39"
       d="m 0,0 c 0.033,-0.363 0.067,-0.726 -0.008,-1.089 -0.077,-0.37 -0.318,-0.614 -0.662,-0.69 -0.422,-0.095 -0.485,0.291 -0.592,0.568 -0.92,2.371 -2.295,4.542 -3.078,6.976 -0.179,0.558 -0.402,1.101 -0.589,1.656 -0.071,0.211 -0.14,0.469 0.127,0.591 0.235,0.106 0.328,-0.14 0.468,-0.265 0.451,-0.401 0.666,-0.969 0.97,-1.461 0.995,-1.62 1.938,-3.27 3.156,-4.742 C 0.175,1.083 -0.012,0.524 0,0"
       style="fill:#ffffff;fill-opacity:1;fill-rule:evenodd;stroke:none"
       transform="matrix(1.3333333,0,0,-1.3333333,61.126533,113.8444)"
       clip-path="url(#clipPath40)" />
    <path
       id="path41"
       d="M 0,0 C 0.368,-1.618 0.047,-3.299 0.499,-4.918 0.597,-5.267 0.898,-5.879 0.43,-6.027 0,-6.163 -0.026,-5.512 -0.186,-5.176 c -0.433,0.91 -0.93,1.791 -1.167,2.785 -0.085,0.356 -0.09,0.699 -0.074,1.07 0.058,1.314 0.033,2.623 -0.329,3.918 -0.239,0.857 -0.253,1.771 -0.49,2.637 -0.028,0.102 -0.031,0.239 0.015,0.327 0.125,0.239 0.126,0.637 0.435,0.667 0.377,0.037 0.373,-0.366 0.432,-0.616 0.347,-1.445 0.791,-2.861 1.227,-4.28 C -0.004,0.901 0.043,0.455 0,0"
       style="fill:#ffffff;fill-opacity:1;fill-rule:evenodd;stroke:none"
       transform="matrix(1.3333333,0,0,-1.3333333,64.5948,133.06107)"
       clip-path="url(#clipPath42)" />
    <path
       id="path43"
       d="m 0,0 c -0.153,-0.811 -0.333,-1.604 -0.517,-2.391 -0.212,-0.907 -0.247,-1.827 -0.397,-2.734 -0.303,-1.819 -0.521,-3.659 -1.138,-5.408 -0.156,-0.442 -0.446,-0.838 -0.689,-1.248 -0.074,-0.124 -0.21,-0.19 -0.363,-0.131 -0.146,0.058 -0.206,0.185 -0.219,0.332 -0.005,0.055 0.016,0.11 0.021,0.166 0.236,2.88 0.806,5.7 1.686,8.446 0.323,1.009 0.845,1.947 0.845,3.049 0,0.274 0.147,0.611 0.491,0.549 C 0.01,0.577 -0.062,0.22 0,0"
       style="fill:#ffffff;fill-opacity:1;fill-rule:evenodd;stroke:none"
       transform="matrix(1.3333333,0,0,-1.3333333,47.321333,101.6524)"
       clip-path="url(#clipPath44)" />
    <path
       id="path45"
       d="M 0,0 C 0.034,0.339 -0.008,0.669 -0.072,1.004 -0.433,2.88 -1.083,4.662 -1.799,6.425 -1.945,6.785 -2.001,7.181 -2.094,7.56 -2.143,7.761 -2.145,7.962 -1.942,8.083 -1.733,8.209 -1.572,8.055 -1.404,7.962 -1.379,7.948 -1.35,7.937 -1.334,7.915 -0.618,6.939 0.329,6.126 0.43,4.764 0.538,3.29 0.712,1.818 1.296,0.421 1.565,-0.221 1.582,-0.943 1.53,-1.648 1.515,-1.849 1.514,-2.06 1.292,-2.143 1.057,-2.233 0.863,-2.135 0.681,-1.976 0.184,-1.541 -0.06,-0.848 0,0"
       style="fill:#ffffff;fill-opacity:1;fill-rule:evenodd;stroke:none"
       transform="matrix(1.3333333,0,0,-1.3333333,26.691333,77.984933)"
       clip-path="url(#clipPath46)" />
    <path
       id="path47"
       d="m 0,0 c -0.008,-1.251 -0.469,-2.289 -0.778,-3.355 -0.532,-1.831 -1.09,-3.654 -1.407,-5.54 -0.042,-0.249 -0.123,-0.492 -0.187,-0.737 -0.035,-0.133 -0.054,-0.292 -0.233,-0.3 -0.182,-0.009 -0.222,0.146 -0.262,0.276 -0.163,0.544 -0.259,1.105 -0.24,1.665 0.039,1.128 -0.043,2.25 -0.101,3.372 -0.035,0.669 0.085,1.237 0.677,1.696 0.76,0.59 1.235,1.444 1.786,2.222 C -0.574,-0.462 -0.455,-0.157 0,0"
       style="fill:#ffffff;fill-opacity:1;fill-rule:evenodd;stroke:none"
       transform="matrix(1.3333333,0,0,-1.3333333,45.26,99.1172)"
       clip-path="url(#clipPath48)" />
    <path
       id="path49"
       d="m 0,0 c -0.385,0.32 -0.382,0.702 -0.456,1.049 -0.289,1.347 -0.678,2.652 -1.298,3.898 -0.359,0.719 -0.596,1.516 -0.777,2.302 -0.18,0.788 0.198,1.485 0.628,2.125 0.204,0.302 0.484,0.225 0.565,-0.079 C -0.939,7.801 -0.249,6.407 0.137,4.911 0.151,4.856 0.169,4.801 0.169,4.744 0.165,3.261 0.16,1.778 0.148,0.293 0.148,0.224 0.08,0.155 0,0"
       style="fill:#ffffff;fill-opacity:1;fill-rule:evenodd;stroke:none"
       transform="matrix(1.3333333,0,0,-1.3333333,66.3344,131.31587)"
       clip-path="url(#clipPath50)" />
    <path
       id="path51"
       d="m 0,0 c 0.041,1.207 0.166,2.402 0.36,3.591 0.054,0.333 0.228,0.567 0.506,0.734 0.439,0.263 0.664,0.68 0.778,1.15 0.183,0.761 0.365,1.526 0.487,2.3 0.092,0.59 0.471,0.939 0.888,1.274 C 3.337,9.305 3.533,9.181 3.588,8.8 3.678,8.189 3.467,7.632 3.221,7.097 2.971,6.559 2.776,6.04 2.791,5.417 2.807,4.706 2.372,4.089 2.149,3.429 1.775,2.314 1.29,1.237 0.847,0.146 0.795,0.017 0.733,-0.113 0.647,-0.223 0.532,-0.373 0.411,-0.586 0.187,-0.509 -0.04,-0.432 0.012,-0.186 0,0"
       style="fill:#ffffff;fill-opacity:1;fill-rule:evenodd;stroke:none"
       transform="matrix(1.3333333,0,0,-1.3333333,77.852,78.056533)"
       clip-path="url(#clipPath52)" />
    <path
       id="path53"
       d="M 0,0 C -0.091,0.224 -0.051,0.374 0.055,0.461 1.233,1.423 2.568,2.37 4.302,1.735 4.797,1.553 4.955,1.248 4.886,0.775 4.812,0.267 4.317,-0.3 3.936,-0.243 3.273,-0.146 2.621,0.006 1.951,0.074 1.288,0.14 0.628,-0.005 0,0"
       style="fill:#ffffff;fill-opacity:1;fill-rule:evenodd;stroke:none"
       transform="matrix(1.3333333,0,0,-1.3333333,58.193467,68.747867)"
       clip-path="url(#clipPath54)" />
    <path
       id="path55"
       d="m 0,0 c -0.45,0.016 -0.887,0.102 -1.327,0.202 -0.588,0.133 -0.716,0.572 -0.768,1.066 -0.027,0.247 0.092,0.456 0.35,0.501 C -0.495,1.988 0.77,2.313 1.954,1.538 2.2,1.378 2.594,1.281 2.577,0.927 2.561,0.577 2.14,0.648 1.915,0.503 1.332,0.129 0.689,-0.022 0,0"
       style="fill:#ffffff;fill-opacity:1;fill-rule:evenodd;stroke:none"
       transform="matrix(1.3333333,0,0,-1.3333333,39.1016,67.838533)"
       clip-path="url(#clipPath56)" />
    <path
       id="path57"
       d="m 0,0 c -0.146,-1.239 -0.952,-2.274 -1.802,-3.28 -0.137,-0.164 -0.363,-0.292 -0.607,-0.193 -0.292,0.12 -0.311,0.397 -0.269,0.644 0.112,0.666 0.161,1.336 0.2,2.009 0.022,0.383 0.213,0.695 0.555,0.893 0.363,0.209 0.728,0.416 1.093,0.62 0.224,0.125 0.495,0.256 0.713,0.146 C 0.161,0.696 -0.031,0.385 0,0"
       style="fill:#ffffff;fill-opacity:1;fill-rule:evenodd;stroke:none"
       transform="matrix(1.3333333,0,0,-1.3333333,44.1244,96.649733)"
       clip-path="url(#clipPath58)" />
    <path
       id="path59"
       d="M 0,0 C 0.451,-0.115 0.878,-0.077 0.939,-0.5 0.99,-0.852 0.671,-1.02 0.377,-1.149 c -0.389,-0.169 -0.71,-0.461 -1.078,-0.652 -1.102,-0.575 -1.334,-1.591 -1.456,-2.673 -0.025,-0.224 -0.048,-0.444 -0.106,-0.661 -0.048,-0.183 -0.045,-0.437 -0.329,-0.388 -0.24,0.043 -0.261,0.274 -0.262,0.47 -0.006,0.843 0,1.687 0.117,2.523 0.057,0.407 0.281,0.785 0.613,0.979 0.636,0.371 1.207,0.814 1.732,1.324 0.15,0.145 0.3,0.265 0.392,0.227"
       style="fill:#ffffff;fill-opacity:1;fill-rule:evenodd;stroke:none"
       transform="matrix(1.3333333,0,0,-1.3333333,82.2332,62.5188)"
       clip-path="url(#clipPath60)" />
    <path
       id="path61"
       d="M 0,0 C 0.456,0.393 1.012,0.451 1.571,0.411 2.443,0.351 3.311,0.381 4.182,0.441 4.349,0.454 4.536,0.51 4.639,0.334 4.775,0.1 4.553,-0.008 4.43,-0.151 3.61,-1.114 1.367,-1.092 0.583,-0.484 0.395,-0.338 0.106,-0.297 0,0"
       style="fill:#ffffff;fill-opacity:1;fill-rule:evenodd;stroke:none"
       transform="matrix(1.3333333,0,0,-1.3333333,48.028,94.211733)"
       clip-path="url(#clipPath62)" />
    <path
       id="path63"
       d="m 0,0 c -0.469,-0.018 -1.105,0.577 -1.134,1.056 -0.014,0.231 0.086,0.43 0.315,0.393 C 0.114,1.303 0.926,1.767 1.796,1.925 1.824,1.929 1.851,1.936 1.879,1.94 2.217,1.993 2.649,2.035 2.779,1.713 2.939,1.318 2.432,1.295 2.207,1.136 1.801,0.848 1.37,0.591 0.933,0.352 0.643,0.191 0.35,0.012 0,0"
       style="fill:#ffffff;fill-opacity:1;fill-rule:evenodd;stroke:none"
       transform="matrix(1.3333333,0,0,-1.3333333,38.297733,71.537867)"
       clip-path="url(#clipPath64)" />
    <path
       id="path65"
       d="m 0,0 c -0.451,0.062 -0.965,0.165 -1.356,0.488 -0.257,0.213 -0.503,0.435 -0.792,0.609 -0.14,0.083 -0.312,0.175 -0.281,0.378 0.035,0.252 0.268,0.253 0.451,0.304 0.196,0.054 0.39,0.034 0.573,-0.059 C -0.627,1.321 0.197,1.086 1.069,1.021 1.215,1.012 1.351,0.956 1.406,0.81 1.474,0.624 1.367,0.49 1.241,0.369 0.909,0.041 0.467,0.076 0,0"
       style="fill:#ffffff;fill-opacity:1;fill-rule:evenodd;stroke:none"
       transform="matrix(1.3333333,0,0,-1.3333333,62.193467,72.4728)"
       clip-path="url(#clipPath66)" />
    <path
       id="path67"
       d="m 0,0 c 0.763,0.018 1.705,-1.028 1.628,-1.877 -0.02,-0.222 -0.147,-0.291 -0.342,-0.23 -0.724,0.225 -1.377,0.604 -2.032,0.973 -0.278,0.157 -0.169,0.432 -0.115,0.679 0.1,0.454 0.484,0.388 0.861,0.455"
       style="fill:#ffffff;fill-opacity:1;fill-rule:evenodd;stroke:none"
       transform="matrix(1.3333333,0,0,-1.3333333,23.7272,62.913067)"
       clip-path="url(#clipPath68)" />
    <path
       id="path69"
       d="M 0,0 C 0.036,0.197 0.058,0.421 0.12,0.632 0.212,0.94 0.271,1.385 0.727,1.229 1.1,1.101 1.509,0.879 1.37,0.313 1.287,-0.021 1.198,-0.324 0.866,-0.506 0.639,-0.63 0.414,-0.751 0.161,-0.624 -0.104,-0.491 0.045,-0.23 0,0"
       style="fill:#ffffff;fill-opacity:1;fill-rule:evenodd;stroke:none"
       transform="matrix(1.3333333,0,0,-1.3333333,46.567067,89.916667)"
       clip-path="url(#clipPath70)" />
    <path
       id="path71"
       d="M 0,0 C -0.41,0.008 -0.836,0.006 -0.795,0.595 -0.77,0.949 -0.804,1.372 -0.257,1.368 0.134,1.365 0.621,0.821 0.61,0.385 0.599,-0.035 0.273,0.017 0,0"
       style="fill:#ffffff;fill-opacity:1;fill-rule:evenodd;stroke:none"
       transform="matrix(1.3333333,0,0,-1.3333333,50.236933,91.401467)"
       clip-path="url(#clipPath72)" />
    <path
       id="path73"
       d="m 0,0 c -0.015,-0.272 -0.232,-0.367 -0.464,-0.341 -0.401,0.044 -0.68,0.305 -0.747,0.696 -0.062,0.365 0.282,0.46 0.537,0.537 C -0.461,0.957 0.004,0.33 0,0"
       style="fill:#ffffff;fill-opacity:1;fill-rule:evenodd;stroke:none"
       transform="matrix(1.3333333,0,0,-1.3333333,53.5356,90.242933)"
       clip-path="url(#clipPath74)" />
  </g>
</svg>
